<svg xmlns="http://www.w3.org/2000/svg" xmlns:xlink="http://www.w3.org/1999/xlink">
    <defs>
        <symbol id="icon-menu" viewBox="0 0 100 100">
            <path d="M5 15 H95 M5 50 H95 M5 85 H95" style="
              stroke-width: 10;
              stroke-linecap: round;
              stroke-linejoin: round;
            " />
        </symbol>

        <symbol id="icon-down" viewBox="0 0 100 100">
            <path d="M25 45 L50 75 L75 45 Z" style="stroke-width: 10; stroke-linejoin: round" />
        </symbol>

        <symbol id="icon-email" viewBox="0 0 512 512">
            <path
                d="M256 352c-16.53 0-33.06-5.422-47.16-16.41L0 173.2V400C0 426.5 21.49 448 48 448h416c26.51 0 48-21.49 48-48V173.2l-208.8 162.5C289.1 346.6 272.5 352 256 352zM16.29 145.3l212.2 165.1c16.19 12.6 38.87 12.6 55.06 0l212.2-165.1C505.1 137.3 512 125 512 112C512 85.49 490.5 64 464 64h-416C21.49 64 0 85.49 0 112C0 125 6.01 137.3 16.29 145.3z">
            </path>
        </symbol>

        <symbol id="icon-phone" viewBox="0 0 512 512">
            <path
                d="M511.2 387l-23.25 100.8c-3.266 14.25-15.79 24.22-30.46 24.22C205.2 512 0 306.8 0 54.5c0-14.66 9.969-27.2 24.22-30.45l100.8-23.25C139.7-2.602 154.7 5.018 160.8 18.92l46.52 108.5c5.438 12.78 1.77 27.67-8.98 36.45L144.5 207.1c33.98 69.22 90.26 125.5 159.5 159.5l44.08-53.8c8.688-10.78 23.69-14.51 36.47-8.975l108.5 46.51C506.1 357.2 514.6 372.4 511.2 387z">
            </path>
        </symbol>
    </defs>
</svg>