<svg width="376" height="120" fill="none" xmlns="http://www.w3.org/2000/svg">
    <path d="M55.94 72.463c9.588.585 14.22-4.278 14.217-13.577.003-7.386-2.33-13.203-14.225-12.544" stroke="#000"
        stroke-width="4" stroke-linecap="round" />
    <path d="M55.35 53.898v20.34M34.72 55.06l21.793.581" stroke="#000" stroke-width="4" />
    <mask id="a" fill="#fff">
        <path
            d="M84.5 50.7a26.732 26.732 0 0 1 1.004 3.202 26.153 26.153 0 0 1 .717 4.94 25.963 25.963 0 0 1-.609 6.974A26.264 26.264 0 0 1 77.73 79.41a25.918 25.918 0 0 1-5.812 4.009 26.441 26.441 0 0 1-8.534 2.623 26.012 26.012 0 0 1-12.469-1.46 26.176 26.176 0 0 1-4.188-2.01 26.156 26.156 0 0 1-7.166-6.27 25.995 25.995 0 0 1-3.408-5.678 26.61 26.61 0 0 1-.47-1.142C30.497 56.002 37.22 40.87 50.7 35.683a26.442 26.442 0 0 1 5.984-1.527 26.001 26.001 0 0 1 11.456 1.051 26.11 26.11 0 0 1 3.762 1.55 26.211 26.211 0 0 1 7.571 5.765 26.067 26.067 0 0 1 3.857 5.568 26.418 26.418 0 0 1 1.17 2.61Z" />
    </mask>
    <path
        d="m36.815 72.018-1.782.91 1.782-.91Zm2.746 4.285-1.57 1.239 1.57-1.24Zm1.695 1.94-1.44 1.39 1.44-1.39Zm.91.9-1.37 1.457 1.37-1.457Zm1.531 1.33-1.252 1.559 1.252-1.56Zm.652.506-1.202 1.598 1.202-1.598Zm2.378 1.593-1.021 1.72 1.02-1.72Zm.902.512-.953 1.758.953-1.758Zm1.199.61-.862 1.805.861-1.805Zm1.194.533-.77 1.846.77-1.846Zm.893.354-.702 1.873.702-1.873Zm.891.316-.634 1.897.634-1.897Zm2.072.6L53.4 87.44l.477-1.942Zm2.354.465-.297 1.978.297-1.978Zm2.343.244-.118 1.997.117-1.997Zm1.166.042-.027 2 .027-2Zm1.164-.01.062 2-.062-2Zm1.16-.062.152 1.994-.152-1.994Zm1.32-.134.253 1.984-.253-1.984Zm1.57-.25.373 1.965-.374-1.965Zm1.884-.431.518 1.931-.518-1.931Zm2.291-.729.692 1.877-.692-1.877Zm2.788-1.213.902 1.785-.902-1.785Zm2.45-1.41 1.09 1.678-1.09-1.677Zm5.607-4.922 1.521 1.298-1.521-1.298Zm.951-1.183 1.594 1.208-1.594-1.208Zm2.436-3.878 1.78.912-1.78-.912Zm.609-1.27 1.826.815-1.826-.816Zm.442-1.052 1.86.736-1.86-.736Zm.872-2.59 1.926.539-1.926-.539Zm.327-1.298 1.952.44-1.952-.44Zm.415-2.325 1.983.262-1.983-.262Zm.194-4.65 1.998-.095-1.998.096Zm-.717-4.94-1.943.476 1.943-.475Zm-.492-1.743 1.906-.608-1.906.608Zm-.254-.756 1.886-.666-1.886.666Zm-2.412-5.055 1.703-1.05-1.703 1.05Zm-3.454-4.445 1.437-1.391-1.437 1.391Zm-.795-.786 1.376-1.452-1.376 1.452Zm-2.11-1.797 1.213-1.59-1.214 1.59Zm-.716-.528 1.159-1.63-1.16 1.63Zm-.738-.505 1.103-1.669-1.103 1.669Zm-.569-.366 1.06-1.697-1.06 1.697Zm-.977-.581.985-1.741-.985 1.74Zm-1.94-.995.837-1.816-.838 1.816Zm-.582-.26.793-1.836-.793 1.836Zm-4.007-1.36.488-1.94-.488 1.94Zm-2.967-.568.262-1.983-.262 1.983Zm-4.486-.202-.083-1.998.083 1.998Zm-1.16.075-.173-1.993.172 1.993Zm-2.49.338L54.99 32.4l.364 1.967Zm-1.162.242-.454-1.948.454 1.948Zm-.582.143-.497-1.937.497 1.937Zm-2.324.713.674 1.883-.674-1.883ZM37.846 69.497a2 2 0 1 0-3.685 1.556l3.685-1.556Zm-3.88 1.084a2 2 0 1 0 3.712-1.49l-3.712 1.49Zm2.13-13.285a2 2 0 1 0-3.973-.466l3.973.466Zm2.829-15.774a2 2 0 1 0 3.009 2.635l-3.01-2.635Zm12.66-4.036a2 2 0 0 0-1.41-3.743l1.41 3.743Zm-1.167-3.833a2 2 0 0 0 1.376 3.756l-1.376-3.756Zm1.79 3.608a2 2 0 0 0-1.308-3.78l1.308 3.78Zm-.948-3.902a2 2 0 0 0 1.258 3.797L51.26 33.36ZM34.532 71.894a2 2 0 0 0 3.633-1.674l-3.633 1.674Zm3.868-1.178a2 2 0 0 0-3.595 1.754l3.595-1.754Zm-3.85 1.194a2 2 0 1 0 3.614-1.715L34.55 71.91Zm3.868-1.178a2 2 0 1 0-3.614 1.714l3.614-1.714ZM35.34 73.51a2 2 0 1 0 3.519-1.903l-3.519 1.903Zm3.864-1.286a2 2 0 0 0-3.462 2.005l3.462-2.005Zm-2.824 3.053a2 2 0 0 0 3.37-2.154l-3.37 2.154Zm3.705-1.646a2 2 0 1 0-3.315 2.24l3.315-2.24Zm-3.68 1.66a2 2 0 0 0 3.342-2.196l-3.343 2.196Zm3.704-1.645a2 2 0 1 0-3.343 2.196l3.343-2.196Zm-2.747 3.067a2 2 0 1 0 3.23-2.36l-3.23 2.36Zm3.526-1.963a2 2 0 1 0-3.18 2.426l3.18-2.426Zm-2.653 3.095a2 2 0 1 0 3.105-2.522l-3.105 2.522Zm3.37-2.2a2 2 0 1 0-3.06 2.576l3.06-2.576Zm-3.355 2.21a2 2 0 1 0 3.083-2.548l-3.083 2.548Zm3.371-2.2a2 2 0 1 0-3.083 2.549l3.083-2.549Zm-2.516 3.21a2 2 0 0 0 2.98-2.667l-2.98 2.668Zm3.316-2.3a2 2 0 0 0-2.924 2.73l2.924-2.73Zm-2.308 3.37a2 2 0 1 0 2.837-2.821l-2.837 2.82Zm3.16-2.502a2 2 0 0 0-2.783 2.874l2.783-2.874Zm-3.142 2.51a2 2 0 1 0 2.81-2.847l-2.81 2.847Zm3.16-2.501a2 2 0 0 0-2.81 2.847l2.81-2.847Zm-2.194 3.435a2 2 0 1 0 2.696-2.955l-2.696 2.955Zm3.023-2.662a2 2 0 1 0-2.642 3.004l2.642-3.004Zm-2.132 3.441a2 2 0 1 0 2.57-3.066l-2.57 3.066Zm2.786-2.886a2 2 0 0 0-2.533 3.096l2.533-3.096Zm-2.776 2.892a2 2 0 0 0 2.552-3.081l-2.551 3.08Zm2.787-2.887a2 2 0 0 0-2.552 3.081l2.552-3.08Zm-2.126 3.426a2 2 0 0 0 2.474-3.143l-2.474 3.143Zm2.705-2.963a2 2 0 1 0-2.435 3.173l2.435-3.173Zm-1.933 3.55a2 2 0 1 0 2.364-3.227l-2.364 3.227Zm2.672-3.005a2 2 0 0 0-2.313 3.263l2.313-3.263Zm-2.657 3.01a2 2 0 0 0 2.34-3.245l-2.34 3.245Zm2.673-3.005a2 2 0 0 0-2.339 3.245l2.339-3.245Zm-1.84 3.597a2 2 0 0 0 2.244-3.31l-2.244 3.31Zm2.46-3.167a2 2 0 1 0-2.209 3.335l2.208-3.335Zm-1.71 3.658a2 2 0 1 0 2.137-3.38l-2.137 3.38Zm2.459-3.181a2 2 0 0 0-2.085 3.414l2.085-3.414Zm-2.444 3.185a2 2 0 1 0 2.112-3.397l-2.112 3.397Zm2.46-3.18a2 2 0 1 0-2.111 3.397l2.11-3.398Zm-1.502 3.764a2 2 0 1 0 2-3.464l-2 3.464Zm2.32-3.282a2 2 0 0 0-1.947 3.494l1.947-3.494Zm-1.252 3.868a2 2 0 1 0 1.849-3.547l-1.85 3.547Zm2.275-3.33a2 2 0 1 0-1.78 3.583l1.78-3.583Zm-2.254 3.333a2 2 0 0 0 1.813-3.565l-1.813 3.565Zm2.275-3.33a2 2 0 0 0-1.814 3.564l1.814-3.564Zm-1.007 3.958a2 2 0 1 0 1.666-3.636l-1.666 3.636Zm2.091-3.446a2 2 0 0 0-1.597 3.667l1.597-3.667Zm-.904 3.958a2 2 0 1 0 1.499-3.709l-1.5 3.709Zm1.816-3.583a2 2 0 1 0-1.447 3.73l1.447-3.73Zm-1.802 3.585a2 2 0 0 0 1.473-3.72l-1.473 3.72Zm1.817-3.583a2 2 0 0 0-1.473 3.719l1.473-3.72Zm-.87 3.95a2 2 0 0 0 1.363-3.761l-1.364 3.76Zm1.68-3.649a2 2 0 1 0-1.312 3.779l1.311-3.779Zm-.722 3.976a2 2 0 1 0 1.228-3.807l-1.228 3.807Zm1.543-3.707a2 2 0 0 0-1.175 3.823l1.175-3.823Zm-1.53 3.708a2 2 0 1 0 1.203-3.815l-1.202 3.815Zm1.545-3.707a2 2 0 0 0-1.202 3.815l1.202-3.815Zm-.505 4.023a2 2 0 1 0 1.079-3.851l-1.079 3.852Zm1.499-3.738a2 2 0 0 0-1.01 3.87l1.01-3.87Zm-.227 4.063a2 2 0 1 0 .898-3.898l-.898 3.898Zm1.317-3.805a2 2 0 0 0-.83 3.913l.83-3.913Zm-1.299 3.803a2 2 0 0 0 .864-3.905l-.864 3.905Zm1.318-3.805a2 2 0 1 0-.864 3.906l.864-3.906Zm-.068 4.069a2 2 0 0 0 .719-3.935l-.719 3.935Zm1.136-3.863a2 2 0 1 0-.65 3.947l.65-3.947Zm.13 4.064a2 2 0 0 0 .538-3.963l-.539 3.963Zm.954-3.91a2 2 0 1 0-.47 3.972l.47-3.972Zm-.937 3.907a2 2 0 0 0 .504-3.968l-.504 3.968Zm.955-3.91a2 2 0 1 0-.504 3.967l.504-3.968Zm.289 4.056a2 2 0 0 0 .359-3.984l-.36 3.984Zm.774-3.95a2 2 0 0 0-.29 3.99l.29-3.99Zm.485 4.035a2 2 0 1 0 .179-3.996l-.18 3.996Zm.593-3.981a2 2 0 0 0-.11 3.998l.11-3.998Zm-.576 3.976a2 2 0 0 0 .145-3.998l-.145 3.998Zm.594-3.981a2 2 0 1 0-.145 3.997l.145-3.997Zm.644 4.014a2 2 0 1 0 0-4v4Zm.413-4.004a2 2 0 0 0 .07 4l-.07-4Zm.84 3.976a2 2 0 0 0-.18-3.996l.18 3.996Zm.232-4.019a2 2 0 0 0 .249 3.993l-.249-3.993Zm-.215 4.012a2 2 0 0 0-.214-3.994l.214 3.994Zm.232-4.018a2 2 0 1 0 .214 3.994l-.214-3.994Zm1.054 3.935a2 2 0 1 0-.366-3.983l.366 3.983Zm.102-4.03a2 2 0 0 0 .445 3.975l-.445-3.975Zm1.403 3.85a2 2 0 0 0-.582-3.957l.582 3.958Zm-.024-4.045a2 2 0 0 0 .674 3.943l-.674-3.943Zm.045 4.032a2 2 0 0 0-.627-3.95l.627 3.95Zm-.024-4.046a2 2 0 1 0 .628 3.95l-.628-3.95Zm1.553 3.787a2 2 0 0 0-.802-3.918l.802 3.918Zm-.394-4.006a2 2 0 1 0 .87 3.904l-.87-3.904Zm1.495 3.758a2 2 0 0 0-.96-3.883l.96 3.883Zm-.699-3.95a2 2 0 0 0 1.003 3.873l-1.003-3.872Zm.709 3.945a2 2 0 0 0-.981-3.878l.98 3.878Zm-.698-3.95a2 2 0 0 0 .98 3.879l-.98-3.878Zm1.615 3.709a2 2 0 1 0-1.09-3.849l1.09 3.849Zm-.683-3.968a2 2 0 1 0 1.158 3.829l-1.158-3.829Zm1.917 3.588a2 2 0 1 0-1.265-3.795l1.265 3.795Zm-.858-3.935a2 2 0 0 0 1.331 3.772l-1.33-3.772Zm.872 3.924a2 2 0 1 0-1.297-3.784l1.297 3.784Zm-.857-3.935a2 2 0 0 0 1.298 3.784l-1.298-3.784Zm1.81 3.604a2 2 0 0 0-1.4-3.747l1.4 3.747Zm-1.275-3.794a2 2 0 0 0 1.42 3.74l-1.42-3.74Zm2.355 3.366a2 2 0 1 0-1.551-3.687l1.55 3.687Zm-.685-4.072a2 2 0 1 0 1.692 3.625l-1.692-3.625Zm3.315 2.803a2 2 0 1 0-1.922-3.508l1.922 3.508Zm-1.052-4.009a2 2 0 0 0 2.067 3.425l-2.067-3.425Zm1.072 3.96a2 2 0 1 0-1.995-3.467l1.995 3.467Zm-1.052-4.01a2 2 0 0 0 1.994 3.468l-1.994-3.467Zm3.387 2.613a2 2 0 0 0-2.258-3.302l2.258 3.302Zm-1.683-3.707a2 2 0 0 0 2.353 3.234l-2.353-3.234Zm3.472 2.376a2 2 0 0 0-2.514-3.111l2.514 3.111Zm-1.895-3.629a2 2 0 1 0 2.618 3.025l-2.618-3.025Zm1.907 3.591a2 2 0 1 0-2.565-3.068l2.566 3.068Zm-1.895-3.629a2 2 0 1 0 2.566 3.069l-2.566-3.069Zm3.574 2.185a2 2 0 0 0-2.756-2.9l2.756 2.9Zm-2.331-3.313a2 2 0 1 0 2.826 2.83l-2.826-2.83Zm3.57 2.059a2 2 0 1 0-2.933-2.72l2.932 2.72Zm-2.56-3.131a2 2 0 1 0 2.994 2.652l-2.995-2.652Zm2.568 3.107a2 2 0 1 0-2.964-2.686l2.964 2.686ZM78.17 76.1a2 2 0 0 0 2.963 2.686L78.17 76.1Zm3.648 1.9a2 2 0 0 0-3.089-2.542L81.82 78Zm-2.75-2.962a2 2 0 1 0 3.144 2.472l-3.145-2.472Zm3.766 1.65a2 2 0 0 0-3.233-2.355l3.233 2.355ZM79.93 73.87a2 2 0 1 0 3.288 2.278l-3.288-2.278Zm2.91 2.792a2 2 0 0 0-3.26-2.317l3.26 2.317Zm-2.905-2.817a2 2 0 1 0 3.261 2.317l-3.26-2.317Zm3.86 1.437a2 2 0 1 0-3.37-2.156l3.37 2.156Zm-3.078-2.623a2 2 0 0 0 3.417 2.08l-3.417-2.08Zm3.917 1.225a2 2 0 1 0-3.488-1.959l3.488 1.959Zm-3.242-2.408a2 2 0 1 0 3.529 1.884l-3.529-1.884Zm3.245 2.385a2 2 0 0 0-3.509-1.921l3.509 1.92Zm-3.242-2.408a2 2 0 0 0 3.508 1.921l-3.508-1.92Zm3.956 1.067a2 2 0 1 0-3.59-1.765l3.59 1.765Zm-3.373-2.217a2 2 0 1 0 3.625 1.691l-3.625-1.69Zm3.97.921a2 2 0 0 0-3.673-1.582l3.673 1.582Zm-3.516-1.956a2 2 0 0 0 3.7 1.521l-3.7-1.52Zm3.518 1.939a2 2 0 1 0-3.687-1.552l3.687 1.552Zm-3.517-1.956a2 2 0 0 0 3.687 1.552l-3.687-1.552Zm4.002.77a2 2 0 1 0-3.743-1.413l3.743 1.412Zm-3.577-1.866a2 2 0 0 0 3.77 1.338l-3.77-1.338Zm4.059.48a2 2 0 0 0-3.811-1.216l3.81 1.216Zm-3.667-1.684a2 2 0 0 0 3.834 1.14l-3.834-1.14Zm3.665 1.663a2 2 0 1 0-3.822-1.178l3.822 1.178ZM83.25 66.93a2 2 0 1 0 3.822 1.177l-3.822-1.177Zm4.078.294a2 2 0 1 0-3.869-1.017l3.869 1.017Zm-3.752-1.478a2 2 0 1 0 3.888.94l-3.888-.94Zm4.072.124a2 2 0 0 0-3.914-.824l3.914.824Zm-3.83-1.237a2 2 0 1 0 3.927.756l-3.928-.756Zm3.828 1.22a2 2 0 1 0-3.921-.791l3.921.79Zm-3.831-1.238a2 2 0 0 0 3.921.79l-3.921-.79Zm4.067.004a2 2 0 1 0-3.947-.647l3.947.647Zm-3.883-1.06a2 2 0 1 0 3.958.579l-3.958-.579Zm4.048-.096a2 2 0 1 0-3.97-.482l3.97.482Zm-3.935-.792a2 2 0 1 0 3.977.431l-3.977-.43Zm3.933.779a2 2 0 1 0-3.973-.457l3.974.457Zm-3.935-.792a2 2 0 1 0 3.974.457l-3.974-.457Zm4.043-.23a2 2 0 1 0-3.986-.334l3.986.334Zm-3.954-.747a2 2 0 1 0 3.99.266l-3.99-.266Zm4.035-.6a2 2 0 0 0-3.997-.143l3.997.142Zm-3.985-.659a2 2 0 1 0 4 .056l-4-.056Zm3.977.636a2 2 0 0 0-3.999-.099l3.999.1Zm-3.985-.658a2 2 0 0 0 3.999.1l-3.999-.1Zm4.007-.789a2 2 0 1 0-4 .068l4-.068Zm-4.01-.345a2 2 0 1 0 3.997-.136l-3.997.136Zm3.96-.907a2 2 0 1 0-3.992.247l3.992-.247Zm-4.021-.166a2 2 0 1 0 3.987-.315l-3.987.316Zm4.015.15a2 2 0 1 0-3.99.28l3.99-.28Zm-4.022-.166a2 2 0 0 0 3.99-.282l-3.99.282Zm3.923-1.07a2 2 0 1 0-3.977.426l3.977-.426Zm-4.025.014a2 2 0 0 0 3.969-.496l-3.97.495Zm3.847-1.363a2 2 0 1 0-3.952.619l3.952-.619Zm-4.038.103a2 2 0 1 0 3.937-.705l-3.938.705Zm4.026-.123a2 2 0 0 0-3.945.662l3.945-.662Zm-4.039.103a2 2 0 1 0 3.945-.662l-3.945.662Zm3.78-1.551a2 2 0 0 0-3.913.828l3.914-.828Zm-4.004.416a2 2 0 0 0 3.898-.897l-3.898.897Zm3.658-1.862a2 2 0 1 0-3.864 1.034l3.864-1.034Zm-4.038.414a2 2 0 0 0 3.835-1.136l-3.835 1.136Zm3.577-1.96a2 2 0 1 0-3.799 1.252l3.799-1.252Zm-3.89.983a2 2 0 0 0 3.785-1.296l-3.784 1.296Zm3.884-.993a2 2 0 0 0-3.792 1.274l3.792-1.275Zm-3.89.983a2 2 0 1 0 3.792-1.274l-3.791 1.274Zm-.644-1.684a2 2 0 1 0 3.678-1.571l-3.678 1.571Zm3.9-1.037a2 2 0 1 0-3.71 1.497l3.71-1.497Zm-3.488 2.066a2 2 0 0 0 3.746-1.404l-3.746 1.404Zm3.853-1.113a2 2 0 1 0-3.76 1.363l3.76-1.363Zm-4.822-1.127a2 2 0 1 0 3.587-1.77l-3.587 1.77Zm3.849-1.225a2 2 0 1 0-3.624 1.693l3.624-1.693Zm-3.866 1.21a2 2 0 0 0 3.606-1.732l-3.606 1.731Zm3.85-1.225a2 2 0 1 0-3.607 1.731l3.606-1.731Zm-4.636-.254a2 2 0 1 0 3.454-2.017l-3.454 2.017Zm3.862-1.294a2 2 0 1 0-3.513 1.914l3.513-1.914Zm-4.502.26a2 2 0 1 0 3.348-2.19l-3.348 2.19Zm3.575-1.836a2 2 0 0 0-3.38 2.138l3.38-2.138Zm-3.587 1.825a2 2 0 1 0 3.364-2.164l-3.364 2.164Zm3.575-1.836a2 2 0 1 0-3.364 2.164l3.364-2.164Zm-4.19.935a2 2 0 1 0 3.243-2.342l-3.243 2.342Zm3.55-1.908a2 2 0 1 0-3.287 2.279l3.287-2.28Zm-4.265.967a2 2 0 1 0 3.124-2.499l-3.124 2.499Zm3.451-2.081a2 2 0 0 0-3.17 2.438l3.17-2.438Zm-3.468 2.07a2 2 0 1 0 3.147-2.469l-3.147 2.469Zm3.451-2.081a2 2 0 1 0-3.147 2.468l3.147-2.468Zm-4.167 1.22a2 2 0 1 0 3.002-2.645l-3.002 2.644Zm3.331-2.265a2 2 0 0 0-3.049 2.59l3.049-2.59Zm-3.93 1.609a2 2 0 0 0 2.902-2.754l-2.902 2.754Zm3.142-2.497a2 2 0 1 0-2.935 2.717l2.935-2.717Zm-3.153 2.49a2 2 0 0 0 2.92-2.736l-2.92 2.736Zm3.143-2.497a2 2 0 1 0-2.92 2.735l2.92-2.735Zm-3.803 1.824a2 2 0 0 0 2.79-2.867l-2.79 2.867Zm3.118-2.541a2 2 0 1 0-2.836 2.82l2.836-2.82Zm-3.766 1.933a2 2 0 1 0 2.682-2.968l-2.682 2.968Zm2.954-2.718a2 2 0 0 0-2.72 2.932l2.72-2.932Zm-2.966 2.712a2 2 0 1 0 2.701-2.95l-2.701 2.95Zm2.954-2.718a2 2 0 1 0-2.7 2.95l2.7-2.95Zm-3.685 2.08a2 2 0 0 0 2.558-3.075l-2.558 3.075Zm2.92-2.77a2 2 0 0 0-2.61 3.032l2.61-3.031Zm-3.541 2.27a2 2 0 0 0 2.455-3.157l-2.455 3.157Zm2.696-2.968a2 2 0 1 0-2.49 3.13l2.49-3.13Zm-2.706 2.964a2 2 0 1 0 2.472-3.145l-2.472 3.145Zm2.696-2.97a2 2 0 0 0-2.473 3.145l2.473-3.144Zm-3.308 2.507a2 2 0 1 0 2.352-3.236l-2.352 3.236Zm2.648-3.017a2 2 0 1 0-2.394 3.204l2.394-3.204Zm-3.323 2.543a2 2 0 1 0 2.24-3.313l-2.24 3.313Zm2.546-3.104a2 2 0 0 0-2.284 3.284l2.284-3.284Zm-2.56 3.1a2 2 0 0 0 2.263-3.3l-2.262 3.3Zm2.547-3.105a2 2 0 0 0-2.262 3.3l2.262-3.3Zm-3.108 2.733a2 2 0 0 0 2.146-3.376l-2.146 3.375Zm2.382-3.225a2 2 0 0 0-2.18 3.355l2.18-3.355Zm-3.167 2.746a2 2 0 0 0 2.017-3.454l-2.017 3.454Zm2.421-3.214a2 2 0 0 0-2.074 3.42l2.074-3.42Zm-2.438 3.21a2 2 0 0 0 2.045-3.438l-2.045 3.438Zm2.421-3.214a2 2 0 1 0-2.045 3.438l2.045-3.438Zm-3.376 2.68a2 2 0 1 0 1.857-3.543l-1.856 3.543Zm2.306-3.302a2 2 0 0 0-1.92 3.509l1.92-3.51Zm-3.163 2.875a2 2 0 0 0 1.716-3.614l-1.716 3.614Zm2.07-3.443a2 2 0 0 0-1.766 3.59l1.766-3.59Zm-2.084 3.44a2 2 0 1 0 1.74-3.602l-1.74 3.602Zm2.07-3.443a2 2 0 1 0-1.74 3.602l1.74-3.602Zm-2.671 3.163a2 2 0 1 0 1.614-3.66l-1.614 3.66Zm1.854-3.552a2 2 0 1 0-1.648 3.645l1.648-3.645Zm-2.577 3.248a2 2 0 1 0 1.496-3.71l-1.496 3.71Zm1.856-3.562a2 2 0 1 0-1.546 3.69l1.546-3.69Zm-1.87 3.56a2 2 0 0 0 1.521-3.7l-1.52 3.7Zm1.856-3.562a2 2 0 1 0-1.52 3.7l1.52-3.7Zm-2.462 3.324a2 2 0 0 0 1.393-3.75l-1.393 3.75Zm1.634-3.66a2 2 0 0 0-1.428 3.737l1.428-3.736Zm-2.356 3.404a2 2 0 0 0 1.274-3.791l-1.274 3.791Zm1.635-3.667a2 2 0 1 0-1.326 3.773l1.326-3.773Zm-1.65 3.666a2 2 0 0 0 1.3-3.783l-1.3 3.783Zm1.636-3.668a2 2 0 0 0-1.3 3.783l1.3-3.783Zm-2.268 3.462a2 2 0 1 0 1.167-3.826l-1.167 3.826Zm1.425-3.746a2 2 0 1 0-1.204 3.814l1.204-3.814Zm-2.28 3.502a2 2 0 1 0 1.027-3.866l-1.026 3.866Zm1.466-3.746a2 2 0 0 0-1.089 3.85l1.089-3.85Zm-1.482 3.747a2 2 0 0 0 1.058-3.858l-1.058 3.858Zm1.465-3.746a2 2 0 1 0-1.058 3.857l1.058-3.857Zm-2.346 3.525a2 2 0 0 0 .878-3.903l-.878 3.903Zm1.264-3.813a2 2 0 0 0-.933 3.89l.933-3.89Zm-2.087 3.642a2 2 0 1 0 .743-3.93l-.743 3.93Zm1.103-3.86a2 2 0 1 0-.793 3.921l.793-3.92Zm-1.116 3.861a2 2 0 0 0 .768-3.925l-.768 3.925Zm1.103-3.86a2 2 0 0 0-.768 3.926l.768-3.926Zm-2.08 3.694a2 2 0 0 0 .578-3.958l-.578 3.958Zm1.06-3.884a2 2 0 0 0-.648 3.947l.647-3.947Zm-2.134 3.751a2 2 0 0 0 .4-3.98l-.4 3.98Zm.881-3.927a2 2 0 1 0-.468 3.972l.468-3.972Zm-.899 3.931a2 2 0 0 0 .435-3.976l-.435 3.976Zm.882-3.927a2 2 0 1 0-.435 3.976l.435-3.976Zm-1.937 3.84a2 2 0 0 0 .221-3.994l-.221 3.994Zm.703-3.963a2 2 0 1 0-.29 3.989l.29-3.99Zm-1.59 3.93a2 2 0 1 0 .073-4l-.074 4Zm.434-3.99a2 2 0 1 0-.125 3.997l.125-3.997Zm-.448 3.993a2 2 0 0 0 .1-4l-.1 4Zm.435-3.99a2 2 0 0 0-.1 3.998l.1-3.999Zm-1.493 3.991a2 2 0 1 0-.106-3.998l.106 3.998Zm.428-4.007a2 2 0 0 0 .03 4l-.03-4Zm-1.537 4.062a2 2 0 1 0-.29-3.99l.29 3.99Zm.191-4.02a2 2 0 0 0 .222 3.994l-.222-3.994Zm-.207 4.027a2 2 0 1 0-.256-3.992l.256 3.992Zm.19-4.02a2 2 0 1 0 .256 3.991l-.256-3.992Zm-1.245 4.115a2 2 0 0 0-.47-3.972l.47 3.972Zm.011-4.025a2 2 0 0 0 .4 3.98l-.4-3.98Zm-1.19 4.194a2 2 0 0 0-.666-3.944l.666 3.944Zm-.116-4.031a2 2 0 1 0 .588 3.957l-.588-3.957Zm.097 4.042a2 2 0 0 0-.627-3.95l.627 3.95Zm-.115-4.032a2 2 0 0 0 .626 3.95l-.627-3.95Zm-1.688 4.402a2 2 0 0 0-.968-3.88l.968 3.88Zm-.728-3.94a2 2 0 1 0 .935 3.89l-.935-3.89Zm1.43 3.776a2 2 0 1 0-.853-3.908l.852 3.908Zm-.372-4.009a2 2 0 0 0 .784 3.923l-.784-3.923Zm-1.426 4.474a2 2 0 0 0-1.15-3.831l1.15 3.831Zm-.548-4.004a2 2 0 0 0 1.064 3.855l-1.064-3.855Zm.529 4.02a2 2 0 1 0-1.107-3.844l1.107 3.843Zm-.548-4.005a2 2 0 0 0 1.107 3.843L52.61 32.96Zm-14.626 36.86a24.458 24.458 0 0 1-.14-.322l-3.684 1.556c.053.125.106.25.161.375l3.663-1.608Zm-.306-.728a24.143 24.143 0 0 1-.129-.327L33.817 70.2c.049.128.099.254.15.38l3.712-1.489Zm-.129-.327a24.039 24.039 0 0 1-1.454-11.468l-3.973-.466a28.04 28.04 0 0 0 1.694 13.37l3.733-1.436Zm4.384-24.607a24.038 24.038 0 0 1 9.485-6.607l-1.437-3.733a28.038 28.038 0 0 0-11.057 7.705l3.009 2.635Zm9.485-6.607.166-.064-1.41-3.743-.193.073 1.437 3.734Zm.375-.141.167-.06-1.348-3.767-.195.07 1.376 3.757Zm.167-.06c.082-.03.165-.06.247-.088l-1.308-3.78-.287.101 1.348 3.766Zm.557-.193.249-.08-1.217-3.811c-.096.03-.193.062-.29.094l1.258 3.797ZM34.322 71.428c.069.156.138.311.21.466l3.633-1.674a24.106 24.106 0 0 1-.18-.4l-3.663 1.608Zm.483 1.042c.075.154.151.306.228.457l3.563-1.82c-.067-.13-.132-.26-.196-.391l-3.595 1.754Zm-.459-.989.204.429 3.614-1.715-.204-.428-3.614 1.714Zm.458.965.203.429 3.614-1.715-.203-.428-3.614 1.714Zm.23.481c.1.196.202.39.306.584l3.519-1.903c-.09-.165-.178-.332-.264-.5l-3.562 1.82Zm.708 1.302c.11.191.223.38.337.567l3.414-2.085c-.098-.16-.195-.323-.29-.486l-3.46 2.005Zm.337.567.301.482 3.37-2.154a24.052 24.052 0 0 1-.257-.413l-3.414 2.085Zm.691 1.075c.106.157.214.313.323.468l3.269-2.306a24.496 24.496 0 0 1-.277-.4L36.77 75.87Zm-.655-1.02.29.441 3.342-2.196-.29-.441-3.342 2.197Zm.651.992.29.441 3.343-2.197-.29-.44-3.343 2.196Zm.327.496c.089.126.179.25.27.375l3.23-2.36a23.4 23.4 0 0 1-.231-.321l-3.269 2.306Zm.615.838c.093.122.188.244.283.365l3.14-2.478a24.82 24.82 0 0 1-.243-.313l-3.18 2.426Zm.283.365c.08.102.162.203.244.304l3.105-2.522a25.33 25.33 0 0 1-.209-.26l-3.14 2.478Zm.554.68c.084.1.168.198.253.296l3.025-2.618a24.164 24.164 0 0 1-.217-.254l-3.06 2.576Zm-.526-.645.231.279 3.083-2.548-.23-.28-3.084 2.549Zm.52.628.23.279 3.083-2.549-.23-.279-3.084 2.549Zm.26.313c.1.117.203.234.306.349l2.98-2.668a23.39 23.39 0 0 1-.262-.299l-3.025 2.618Zm.698.778c.105.113.212.225.32.336l2.878-2.777a24.17 24.17 0 0 1-.274-.288l-2.924 2.729Zm.32.336c.097.102.196.203.296.303l2.837-2.82c-.086-.086-.17-.172-.255-.26l-2.879 2.777Zm.673.675c.102.099.204.196.307.293l2.739-2.915a24.84 24.84 0 0 1-.263-.25l-2.783 2.873Zm-.639-.64.28.277 2.81-2.847-.28-.276-2.81 2.846Zm.63.623.28.276 2.81-2.847-.28-.276-2.81 2.847Zm.316.31.3.278 2.696-2.955a24.042 24.042 0 0 1-.257-.238l-2.74 2.915Zm.681.62c.103.09.206.179.31.267l2.597-3.041a23.963 23.963 0 0 1-.265-.23l-2.642 3.004Zm.31.267.2.17 2.57-3.066a23.615 23.615 0 0 1-.173-.145l-2.598 3.041Zm.453.38.204.165 2.504-3.12a23.582 23.582 0 0 1-.175-.141l-2.533 3.096Zm-.43-.36.188.156 2.55-3.081-.187-.156-2.551 3.081Zm.422.35.188.156 2.552-3.08-.188-.157-2.552 3.081Zm.212.175.214.17 2.474-3.143a25.51 25.51 0 0 1-.184-.146l-2.504 3.119Zm.484.38.218.165 2.404-3.196a25.486 25.486 0 0 1-.187-.142l-2.435 3.173Zm.218.165.284.212 2.364-3.227-.244-.181-2.404 3.196Zm.643.47c.096.069.193.136.29.203l2.272-3.292a25.241 25.241 0 0 1-.249-.174l-2.313 3.263Zm-.61-.445.266.192 2.34-3.245-.268-.193-2.339 3.246Zm.6.432.267.193 2.339-3.245-.267-.193-2.339 3.245Zm.3.216.2.136 2.243-3.31a22.37 22.37 0 0 1-.17-.118L44.08 83.25Zm.45.304.202.133 2.18-3.354a27.06 27.06 0 0 1-.174-.114l-2.208 3.335Zm.202.133c.098.064.197.127.297.19l2.137-3.38-.255-.164-2.18 3.354Zm.671.423.303.182 2.041-3.44a24.436 24.436 0 0 1-.26-.156l-2.084 3.414Zm-.637-.402.278.173 2.112-3.397-.279-.173-2.111 3.397Zm.627.39.278.173 2.111-3.398-.278-.173-2.111 3.398Zm.313.194.296.173 2-3.464-.255-.149-2.041 3.44Zm.67.385.3.165 1.905-3.517a25.939 25.939 0 0 1-.259-.142l-1.947 3.494Zm.3.165c.131.071.262.14.394.21l1.849-3.548a24.239 24.239 0 0 1-.338-.179l-1.905 3.517Zm.89.462c.133.066.266.13.4.195l1.723-3.61a23.19 23.19 0 0 1-.344-.168l-1.78 3.583Zm-.844-.438.369.188 1.813-3.565-.368-.188-1.814 3.565Zm.83.422.368.188 1.814-3.565-.368-.188-1.814 3.566Zm.414.21c.13.063.261.124.393.184l1.666-3.636a23.415 23.415 0 0 1-.336-.158l-1.723 3.61Zm.887.405c.133.058.265.114.399.17l1.54-3.691a23.422 23.422 0 0 1-.342-.146l-1.597 3.667Zm.399.17.294.121 1.499-3.709a23.084 23.084 0 0 1-.253-.103l-1.54 3.691Zm.663.267c.1.039.198.077.298.114l1.405-3.745a23.09 23.09 0 0 1-.256-.098l-1.447 3.73Zm-.63-.253.275.109 1.473-3.72-.275-.108-1.473 3.719Zm.619.245.275.109 1.473-3.72-.275-.108-1.473 3.719Zm.309.122c.097.037.195.073.293.108l1.364-3.76-.252-.093-1.405 3.745Zm.662.239.297.101 1.269-3.793-.255-.087-1.31 3.779Zm.297.101c.097.033.195.065.293.096l1.228-3.807a23.878 23.878 0 0 1-.252-.082l-1.27 3.793Zm.66.212.296.09 1.134-3.837-.254-.076-1.175 3.823Zm-.627-.201.274.086 1.202-3.815-.274-.086-1.202 3.815Zm.616.194.273.086 1.202-3.815-.273-.086-1.202 3.815Zm.307.096c.13.039.26.076.39.112l1.079-3.851a25.584 25.584 0 0 1-.335-.097l-1.134 3.836Zm.88.245.393.1.953-3.885a26.026 26.026 0 0 1-.337-.086l-1.01 3.87Zm.393.1.389.092.898-3.898a23.813 23.813 0 0 1-.334-.08l-.953 3.885Zm.877.2c.13.028.26.054.392.08l.773-3.924a23.824 23.824 0 0 1-.336-.07l-.83 3.914Zm-.832-.19.362.08.864-3.905-.362-.08-.864 3.905Zm.816.18.362.08.864-3.905-.362-.08-.864 3.906Zm.408.09c.129.026.258.05.388.074l.719-3.935c-.112-.02-.223-.041-.334-.063l-.773 3.924Zm.875.158c.13.022.26.042.39.062l.594-3.956a22.21 22.21 0 0 1-.335-.053l-.65 3.947Zm.39.062c.13.02.259.038.388.055l.539-3.963-.333-.048-.594 3.956Zm.874.117c.13.015.259.03.389.043l.414-3.978a24.673 24.673 0 0 1-.334-.037l-.47 3.972Zm-.829-.111.361.046.504-3.968-.36-.046-.505 3.968Zm.812.103.36.046.505-3.968-.36-.046-.505 3.968Zm.406.051c.129.014.258.026.387.038l.359-3.984c-.111-.01-.222-.02-.332-.032l-.414 3.978Zm.871.077c.13.01.259.018.388.026l.235-3.993a24.422 24.422 0 0 1-.333-.022l-.29 3.99Zm.388.026.387.02.179-3.996-.331-.017-.235 3.993Zm.87.037c.129.004.258.006.387.008l.055-4a22.91 22.91 0 0 1-.332-.006l-.11 3.998Zm-.825-.035.36.013.144-3.998-.36-.013-.144 3.998Zm.808.029.359.013.144-3.997-.358-.013-.145 3.997Zm.404.014c.128.002.257.003.385.003v-4l-.33-.002-.055 4Zm.867-.002c.129-.002.257-.005.386-.009l-.124-3.998c-.11.004-.22.006-.33.008l.068 4Zm.386-.009.385-.014-.18-3.996-.33.012.125 3.998Zm.866-.04.384-.027-.303-3.988c-.11.008-.22.016-.33.022l.249 3.993Zm-.821.038.357-.019-.214-3.994-.357.019.214 3.994Zm.803-.043.357-.019-.214-3.994-.357.019.214 3.994Zm.402-.022c.146-.01.292-.023.438-.037l-.366-3.983c-.125.012-.25.022-.375.032l.303 3.988Zm.985-.092.436-.052-.507-3.968c-.124.016-.25.03-.374.044l.445 3.976Zm.436-.052c.174-.023.348-.046.522-.072l-.582-3.958c-.149.022-.298.043-.447.062l.507 3.968Zm1.172-.175c.173-.03.346-.061.518-.094l-.748-3.93c-.148.029-.296.055-.444.08l.674 3.944Zm-1.112.166.483-.077-.627-3.95-.483.076.627 3.95Zm1.087-.173.483-.077-.628-3.95-.483.077.628 3.95Zm.543-.087c.128-.024.255-.05.382-.076l-.802-3.918c-.11.022-.219.044-.328.064l.748 3.93Zm.859-.178c.127-.028.253-.057.38-.087l-.925-3.892c-.108.026-.217.051-.326.075l.87 3.904Zm.38-.087.244-.059-.96-3.883-.209.05.925 3.892Zm.548-.136c.08-.02.161-.042.242-.064L66.32 83.43l-.208.055 1.003 3.872Zm-.52.13.226-.058-.981-3.878-.226.057.98 3.878Zm.508-.13.226-.057-.98-3.878-.227.058.981 3.878Zm.254-.064.382-.105-1.091-3.849c-.11.031-.218.062-.328.09l1.037 3.864Zm.856-.244.378-.117-1.211-3.812-.325.1 1.158 3.829Zm.378-.117c.127-.04.254-.082.38-.124l-1.264-3.795a24.94 24.94 0 0 1-.327.107l1.21 3.812Zm.854-.287c.126-.044.251-.09.377-.135l-1.384-3.753c-.108.04-.216.078-.324.116l1.331 3.772Zm-.81.272.351-.12-1.297-3.784-.352.12 1.297 3.784Zm.792-.271.352-.121-1.298-3.784-.352.121 1.298 3.784Zm.395-.136.117-.044-1.4-3.747-.1.038 1.383 3.753Zm.262-.099.117-.044-1.437-3.733-.1.038 1.42 3.74Zm.117-.044c.275-.106.547-.216.818-.33l-1.551-3.686a24.64 24.64 0 0 1-.704.283l1.437 3.733Zm1.826-.776c.267-.125.531-.254.793-.386l-1.804-3.57c-.225.114-.452.224-.682.331l1.692 3.625Zm.793-.386c.28-.141.556-.287.829-.436l-1.922-3.508c-.234.128-.471.253-.711.374l1.804 3.57Zm1.844-1.02c.268-.162.532-.328.794-.497l-2.18-3.354c-.224.145-.45.287-.68.426l2.066 3.425Zm-1.749.969.754-.434-1.995-3.467-.753.434 1.994 3.467Zm1.696-.976.754-.434-1.995-3.467-.753.434 1.994 3.467Zm.847-.49c.183-.12.365-.241.546-.365l-2.258-3.302c-.155.106-.31.21-.468.313l2.18 3.354Zm1.216-.838c.178-.129.353-.26.527-.392l-2.43-3.178c-.148.113-.299.226-.45.336l2.353 3.234Zm.527-.392c.2-.153.397-.308.592-.466l-2.514-3.111c-.167.135-.336.268-.507.399l2.429 3.178Zm1.315-1.07c.19-.165.377-.331.563-.5l-2.698-2.954c-.159.145-.32.288-.483.43l2.618 3.024Zm-1.247 1.015.536-.449-2.565-3.068-.537.448 2.566 3.069Zm1.207-1.01.537-.448-2.566-3.069-.537.45 2.566 3.068Zm.603-.505c.136-.125.271-.251.405-.378l-2.756-2.9c-.115.11-.23.217-.347.324l2.698 2.953Zm.9-.861c.131-.13.26-.262.388-.395l-2.882-2.774c-.11.114-.22.227-.332.339l2.826 2.83Zm.388-.395c.12-.124.238-.25.355-.376l-2.932-2.72c-.1.108-.202.215-.305.322l2.882 2.774Zm.79-.855.34-.39-3.044-2.597-.29.335 2.994 2.652Zm-.749.811.323-.356-2.964-2.686-.323.356 2.964 2.686Zm.726-.8.323-.357-2.964-2.686-.323.356 2.964 2.686Zm.362-.402c.109-.127.217-.256.323-.385l-3.089-2.542c-.091.111-.183.222-.277.331l3.043 2.596Zm.717-.875c.104-.132.206-.264.307-.398l-3.188-2.415c-.087.114-.175.228-.264.341l3.145 2.472Zm.307-.398c.107-.14.212-.282.315-.424l-3.233-2.355c-.089.122-.179.243-.27.364l3.188 2.415Zm.698-.963c.1-.144.2-.29.297-.437l-3.33-2.216c-.084.126-.169.25-.255.375l3.288 2.278Zm-.662.914.285-.4-3.261-2.317-.284.4 3.26 2.317Zm.64-.9.284-.4-3.26-2.317-.285.4 3.261 2.317Zm.319-.45c.094-.143.188-.286.28-.43l-3.37-2.156c-.078.124-.159.247-.24.369l3.33 2.216Zm.62-.974c.088-.146.176-.293.262-.44l-3.455-2.017c-.074.127-.149.253-.225.379l3.417 2.078Zm.262-.44c.08-.138.16-.276.237-.415l-3.488-1.957c-.067.119-.135.237-.204.355l3.455 2.017Zm.524-.938c.075-.14.148-.282.221-.423l-3.56-1.825c-.062.122-.125.243-.19.364l3.529 1.884Zm-.497.89.213-.39-3.509-1.92-.213.39 3.509 1.92Zm.48-.876.212-.389-3.508-1.921-.213.39 3.508 1.92Zm.238-.437.21-.417-3.59-1.765c-.059.12-.119.239-.18.358l3.56 1.824Zm.461-.943c.066-.14.13-.282.194-.424l-3.653-1.631c-.054.122-.11.243-.166.364l3.625 1.691Zm.194-.424c.051-.115.102-.23.151-.346l-3.673-1.582-.13.297 3.652 1.631Zm.335-.78.14-.351-3.719-1.471-.121.3 3.7 1.521Zm-.318.74.136-.323-3.687-1.552-.136.324 3.687 1.551Zm.306-.727.136-.324-3.686-1.551-.137.323 3.687 1.552Zm.153-.364c.055-.14.109-.279.162-.419l-3.743-1.412c-.045.12-.091.24-.139.36l3.72 1.471Zm.355-.946c.05-.141.099-.282.146-.424l-3.79-1.278c-.041.122-.083.243-.126.364l3.77 1.338Zm.146-.424c.049-.144.096-.289.143-.434l-3.811-1.216c-.04.124-.08.248-.122.372l3.79 1.278Zm.31-.979c.044-.145.086-.291.127-.438l-3.852-1.077-.109.376 3.834 1.14Zm-.294.929.125-.405-3.822-1.178-.125.405 3.822 1.178Zm.281-.912.125-.405-3.823-1.178-.124.406 3.822 1.177Zm.14-.455c.04-.142.078-.285.116-.428l-3.869-1.017c-.032.123-.065.246-.1.368l3.853 1.077Zm.252-.966c.034-.144.068-.288.1-.432l-3.902-.879a24.61 24.61 0 0 1-.086.37l3.888.941Zm.1-.432c.03-.127.057-.255.084-.384l-3.914-.824-.072.33 3.903.878Zm.181-.865c.025-.128.049-.257.072-.386l-3.938-.701c-.02.11-.04.22-.062.33l3.928.757Zm-.171.82.072-.357-3.921-.79-.072.357 3.92.79Zm.162-.804.072-.358-3.92-.79-.073.358 3.921.79Zm.08-.402.066-.384-3.947-.647-.056.33 3.938.701Zm.14-.865c.02-.129.038-.257.055-.386l-3.966-.524-.046.331 3.958.579Zm.055-.386.036-.289-3.97-.482-.032.247 3.966.524Zm.078-.65.03-.289-3.981-.39-.026.248 3.977.431Zm-.074.616.03-.268-3.973-.457-.031.269 3.974.456Zm.07-.603.03-.269-3.974-.456-.03.268 3.973.457Zm.034-.302c.012-.128.024-.256.034-.385l-3.986-.334-.03.33 3.982.389Zm.07-.866c.01-.128.017-.257.024-.386l-3.995-.21c-.005.11-.012.22-.02.33l3.992.266Zm.024-.386.021-.48-3.997-.143a23.56 23.56 0 0 1-.019.412l3.995.211Zm.036-1.083c.002-.16.003-.32.003-.481l-4 .012c0 .138 0 .276-.003.413l4 .056Zm-.034 1.028.011-.447-3.999-.1-.01.447 3.998.1Zm.025-1.006.011-.447-3.999-.1-.01.447 3.998.1Zm.012-.503c0-.129-.002-.257-.004-.386l-4 .068.004.33 4-.012Zm-.017-.867c-.004-.129-.01-.257-.015-.385l-3.996.191.014.33 3.997-.136Zm-.015-.385a26.204 26.204 0 0 0-.022-.386l-3.992.247.018.33 3.996-.191Zm-.055-.867c-.01-.129-.022-.257-.034-.385l-3.982.37c.01.11.02.22.028.33l3.987-.315Zm.052.822-.025-.358-3.99.282.025.357 3.99-.281Zm-.057-.805-.025-.357-3.99.281.025.358 3.99-.282Zm-.029-.402a26.506 26.506 0 0 0-.038-.386l-3.977.426.033.33 3.982-.37Zm-.094-.868a28.081 28.081 0 0 0-.05-.384l-3.963.55c.016.11.03.22.044.33l3.969-.496Zm-.05-.384a27.697 27.697 0 0 0-.072-.483l-3.952.619c.022.138.042.276.061.414l3.962-.55Zm-.173-1.085-.09-.48-3.925.774.078.411 3.937-.705Zm.164 1.029-.075-.447-3.945.662.075.447 3.945-.662Zm-.17-1.006-.074-.447-3.945.662.075.447 3.945-.662Zm-.084-.503a28.748 28.748 0 0 0-.08-.386l-3.913.828c.024.11.046.221.068.332l3.925-.774Zm-.186-.867-.09-.384-3.886.951.078.33 3.898-.897Zm-.09-.384a28.139 28.139 0 0 0-.15-.581l-3.864 1.034c.045.166.087.332.128.498l3.885-.951Zm-.353-1.303a27.734 27.734 0 0 0-.176-.573l-3.81 1.217c.051.164.102.328.15.492l3.836-1.136Zm-.176-.573a27.157 27.157 0 0 0-.082-.251l-3.799 1.252.07.216 3.81-1.217Zm-.187-.564a29.473 29.473 0 0 0-.087-.25l-3.772 1.331.075.215 3.784-1.296Zm.177.535-.078-.233-3.792 1.275.079.232 3.791-1.274Zm-.176-.523-.078-.233-3.792 1.274.079.233 3.791-1.274Zm-4.595-.775c.054.121.107.243.159.365l3.678-1.571c-.06-.142-.122-.284-.185-.424l-3.652 1.63Zm.35.825c.05.123.098.246.146.37l3.733-1.436a28.944 28.944 0 0 0-.17-.43l-3.71 1.496Zm.146.37.075.2 3.746-1.405a29.551 29.551 0 0 0-.088-.23l-3.733 1.436Zm.168.45.071.2 3.772-1.332a29.437 29.437 0 0 0-.083-.232l-3.76 1.363Zm-1.25-2.862c.064.123.127.246.188.37l3.587-1.77c-.071-.144-.144-.288-.218-.431l-3.556 1.83Zm.413.84c.058.125.116.25.173.377l3.652-1.63a27.9 27.9 0 0 0-.201-.44l-3.624 1.692Zm-.437-.89.195.405 3.606-1.731-.195-.406-3.606 1.732Zm.438.912.195.406 3.606-1.732-.195-.405-3.606 1.731Zm-1.322-2.472c.1.16.197.323.293.487l3.454-2.017a27.863 27.863 0 0 0-.341-.568l-3.406 2.098Zm.642 1.107c.091.166.18.334.267.503l3.556-1.831a27.892 27.892 0 0 0-.31-.586l-3.513 1.914Zm-1.148-1.894.16.24 3.347-2.19a28.273 28.273 0 0 0-.186-.28l-3.32 2.23Zm.354.542.152.245 3.406-2.098-.178-.285-3.38 2.138Zm-.375-.575.168.262 3.364-2.164-.168-.262-3.364 2.164Zm.38.59.168.263 3.364-2.164-.169-.263-3.364 2.164Zm-1.042-1.523c.073.097.144.195.215.294l3.243-2.342a28.67 28.67 0 0 0-.25-.342l-3.208 2.39Zm.478.665c.07.1.137.2.205.3l3.321-2.229a29.638 29.638 0 0 0-.239-.35l-3.287 2.279Zm-1.207-1.594.23.282 3.123-2.499-.268-.329-3.085 2.546Zm.51.64c.073.095.147.192.219.29l3.207-2.391a28.56 28.56 0 0 0-.256-.338l-3.17 2.438Zm-.541-.679.243.31 3.147-2.469-.243-.31-3.147 2.47Zm.547.698.243.31 3.147-2.47-.243-.31-3.147 2.47Zm-1.25-1.507c.078.085.154.17.23.257l3.002-2.644-.268-.3-2.963 2.687Zm.513.583c.074.088.148.176.22.265l3.086-2.546a27.548 27.548 0 0 0-.258-.309l-3.049 2.59Zm-1.049-1.155c.056.057.112.115.167.174l2.902-2.754-.195-.203-2.874 2.783Zm.374.394.163.178 2.963-2.687-.19-.208-2.936 2.717Zm-.396-.418.178.19 2.92-2.735-.18-.19-2.918 2.735Zm.402.43.179.19 2.918-2.735-.178-.191-2.92 2.735Zm-1.113-1.132.229.22 2.79-2.867a28.05 28.05 0 0 0-.268-.257l-2.751 2.904Zm.51.499c.075.075.15.15.223.227l2.874-2.783a25.89 25.89 0 0 0-.26-.264l-2.836 2.82Zm-1.118-1.056.189.17 2.682-2.968a27.2 27.2 0 0 0-.22-.197l-2.651 2.995Zm.423.383.184.174 2.752-2.904a27.323 27.323 0 0 0-.216-.202l-2.72 2.932Zm-.449-.405.203.185 2.701-2.95-.202-.186-2.702 2.95Zm.456.417.203.185 2.7-2.95-.202-.185-2.7 2.95ZM75.31 41.33c.084.068.168.137.25.206l2.56-3.075a29.12 29.12 0 0 0-.293-.24l-2.517 3.11Zm.56.468.245.213 2.65-2.995c-.094-.084-.19-.167-.285-.25l-2.61 3.032Zm-1.097-.89.167.128 2.455-3.157-.194-.15-2.428 3.18Zm.373.29.164.132 2.517-3.109a28.431 28.431 0 0 0-.191-.153l-2.49 3.13Zm-.395-.307.179.14 2.472-3.144-.179-.14-2.472 3.144Zm.402.316.18.14 2.472-3.144-.18-.14-2.472 3.144Zm-1.04-.786.205.148 2.352-3.236-.239-.171-2.318 3.26Zm.459.335.201.152L77.2 37.73l-.235-.177-2.394 3.204Zm-1.14-.802.21.141 2.241-3.313-.246-.165-2.206 3.337Zm.473.321.208.146 2.318-3.26-.242-.17-2.284 3.284Zm-.502-.34.227.155 2.262-3.298-.227-.156-2.262 3.299Zm.51.35.228.156 2.262-3.299-.227-.156-2.262 3.3Zm-1.008-.669.163.102 2.146-3.375a28.7 28.7 0 0 0-.19-.12l-2.119 3.393Zm.365.233c.054.034.108.07.161.105l2.206-3.337a31.701 31.701 0 0 0-.187-.123l-2.18 3.355Zm-1.267-.77.28.161 2.017-3.454a28.632 28.632 0 0 0-.327-.188l-1.97 3.481Zm.627.368c.092.055.184.112.275.169l2.12-3.393a29.311 29.311 0 0 0-.321-.197l-2.074 3.42Zm-.664-.39.3.18 2.045-3.439-.3-.178-2.045 3.437Zm.676.403.3.178 2.046-3.437-.301-.179-2.045 3.438Zm-1.642-.918.312.16 1.856-3.543c-.12-.063-.241-.125-.362-.186l-1.806 3.57Zm.697.367c.103.056.204.113.306.17l1.97-3.481a28.801 28.801 0 0 0-.356-.198l-1.92 3.509Zm-1.487-.749.244.115 1.716-3.614c-.095-.045-.19-.09-.285-.133l-1.675 3.632Zm.548.262.242.12 1.806-3.57a29.52 29.52 0 0 0-.282-.14l-1.766 3.59Zm-.581-.277.263.127 1.74-3.602-.263-.127-1.74 3.602Zm.592.286.264.127 1.74-3.601-.263-.128-1.74 3.602Zm-1.096-.51.166.072 1.614-3.66a27.516 27.516 0 0 0-.194-.085l-1.586 3.672Zm.372.164.165.075 1.675-3.632-.192-.088-1.648 3.645Zm-1.178-.496.25.099 1.495-3.71a30.14 30.14 0 0 0-.29-.115l-1.455 3.726Zm.56.226.246.105 1.587-3.672a26.866 26.866 0 0 0-.288-.122l-1.546 3.69Zm-.593-.24.268.111 1.521-3.7-.268-.11-1.521 3.7Zm.603.249.269.11 1.52-3.7-.268-.11-1.52 3.7Zm-1.107-.437.166.06 1.393-3.749a26.179 26.179 0 0 0-.193-.07l-1.366 3.759Zm.372.138.165.064 1.454-3.726a24.53 24.53 0 0 0-.191-.074L68.7 37.525Zm-1.177-.415.249.082 1.274-3.791a29.768 29.768 0 0 0-.29-.096l-1.233 3.805Zm.558.188.247.089 1.366-3.76a26.527 26.527 0 0 0-.287-.102l-1.326 3.773Zm-.591-.2.268.093 1.3-3.783-.269-.092-1.3 3.783Zm.603.208.268.092 1.3-3.783-.268-.092-1.3 3.783Zm-1.146-.375.178.054 1.167-3.826a29.038 29.038 0 0 0-.207-.062l-1.138 3.834Zm.4.122.176.057 1.233-3.805a28.97 28.97 0 0 0-.206-.066l-1.204 3.814Zm-1.379-.39.303.078 1.026-3.866a28.418 28.418 0 0 0-.352-.091l-.977 3.879Zm.679.181.3.087 1.138-3.834a27.922 27.922 0 0 0-.349-.102l-1.089 3.85Zm-.72-.192.327.09 1.058-3.858-.326-.09-1.058 3.858Zm.734.201.326.09 1.058-3.858-.326-.09-1.058 3.858Zm-1.554-.39c.089.018.177.038.266.058l.878-3.903a27.58 27.58 0 0 0-.31-.068l-.834 3.912Zm.597.135c.088.02.176.043.264.065l.977-3.88a27.097 27.097 0 0 0-.308-.075l-.933 3.89Zm-1.402-.293.248.045.743-3.93a25.814 25.814 0 0 0-.29-.053l-.701 3.938Zm.558.106.247.051.835-3.912-.288-.06-.794 3.921Zm-.592-.112.269.052.768-3.925-.268-.053-.769 3.926Zm.604.118.268.052.768-3.925-.268-.053-.768 3.926Zm-1.644-.279c.11.015.221.03.331.047l.579-3.958a27.74 27.74 0 0 0-.386-.054l-.524 3.965Zm.744.11.33.057.701-3.938a29.036 29.036 0 0 0-.384-.066l-.647 3.947Zm-1.817-.227.331.031.4-3.98a29.074 29.074 0 0 0-.386-.036l-.345 3.985Zm.744.076.33.041.523-3.965a27.435 27.435 0 0 0-.385-.048l-.468 3.972Zm-.788-.08.357.039.435-3.976-.358-.04-.434 3.977Zm.804.088.358.039.434-3.976-.357-.04-.435 3.977Zm-1.833-.152c.11.004.22.01.33.016l.222-3.994a27.47 27.47 0 0 0-.385-.019l-.167 3.997Zm.744.042.33.026.344-3.985a27.425 27.425 0 0 0-.384-.03l-.29 3.989Zm-1.548-.062c.082 0 .165.001.247.003l.074-4a27.792 27.792 0 0 0-.29-.003l-.031 4Zm.557.01.247.01.167-3.997a27.756 27.756 0 0 0-.29-.01l-.124 3.997Zm-.59-.011.267.007.1-4-.269-.006-.099 3.999Zm.603.015.268.007.1-4-.27-.006-.098 3.999Zm-1.76.005.366-.012-.106-3.998c-.142.003-.284.008-.427.014l.167 3.997Zm.823-.02h.367l.032-4a27.677 27.677 0 0 0-.428 0l.03 4Zm-1.895.09.33-.027-.291-3.99-.384.031.345 3.985Zm.742-.053c.11-.007.22-.012.33-.017l-.167-3.996c-.128.005-.256.012-.385.019l.222 3.994Zm-.787.056.358-.023-.256-3.992-.358.023.256 3.992Zm.804-.052.357-.023-.256-3.992-.357.023.256 3.992Zm-1.83.166.329-.042-.47-3.972-.383.048.524 3.965Zm.74-.087.331-.03-.346-3.986-.385.036.4 3.98Zm-1.967.281c.126-.023.251-.045.377-.066l-.666-3.945c-.147.025-.293.05-.44.078l.73 3.933Zm.849-.141c.126-.02.252-.037.378-.053l-.524-3.966c-.148.02-.295.04-.442.062l.588 3.957Zm-.9.15.41-.065-.628-3.95-.409.064.627 3.95Zm.92-.146.41-.065-.628-3.95-.408.064.626 3.95Zm-2.479.493.165-.042-.968-3.88-.192.048.995 3.874Zm.372-.093.165-.039-.907-3.896-.193.046.935 3.89Zm.165-.039.33-.074-.853-3.908-.384.086.907 3.896Zm.742-.16.331-.064-.729-3.933-.386.074.784 3.923Zm-2.621.678c.137-.043.274-.086.41-.127l-1.149-3.831c-.16.048-.319.097-.478.148l1.217 3.81Zm.927-.276c.138-.038.277-.075.415-.11l-.995-3.874c-.162.041-.323.084-.484.129l1.064 3.855Zm-.982.293.447-.129-1.107-3.843-.447.128 1.107 3.844Zm1.006-.29.447-.128-1.107-3.844-.447.129 1.107 3.843ZM36.814 72.018l-3.562 1.82 3.563-1.82Zm2.747 4.285-3.14 2.478 3.14-2.478Zm1.695 1.94-2.88 2.778 2.88-2.777Zm.91.9-2.739 2.915 2.74-2.916Zm1.531 1.33-2.504 3.119 2.504-3.12Zm.652.506-2.405 3.197 2.405-3.197Zm2.378 1.593-2.042 3.44 2.041-3.44Zm.902.512L45.724 86.6l1.905-3.517Zm1.199.61-1.723 3.61 1.723-3.61Zm1.194.533-1.54 3.692 1.54-3.692Zm.893.354-1.405 3.745 1.405-3.745Zm.891.316-1.27 3.794 1.27-3.794Zm2.072.6-.954 3.885.954-3.885Zm2.354.465-.593 3.956.593-3.956Zm2.343.244L58.34 90.2l.234-3.993Zm1.166.042-.055 4 .055-4Zm1.164-.01.124 3.998-.124-3.998Zm1.16-.062.304 3.989-.304-3.989Zm1.32-.134.506 3.967-.506-3.967Zm1.57-.25.747 3.93-.748-3.93Zm1.884-.431 1.037 3.863-1.037-3.864Zm2.291-.729 1.384 3.753-1.384-3.753Zm2.788-1.213 1.804 3.57-1.804-3.57Zm2.45-1.41 2.18 3.355-2.18-3.354Zm5.607-4.922 3.043 2.596-3.043-2.596Zm.951-1.183 3.189 2.416-3.189-2.416Zm2.436-3.878 3.56 1.824-3.56-1.824Zm.609-1.27 3.652 1.63-3.652-1.63Zm.442-1.052 3.72 1.472-3.72-1.472Zm.872-2.59 3.852 1.078-3.852-1.078Zm.327-1.298 3.903.879-3.903-.88Zm.415-2.325 3.965.523-3.965-.523Zm.194-4.65 3.995-.191-3.995.192Zm-.717-4.94-3.886.952 3.886-.951Zm-.492-1.743 3.81-1.217-3.81 1.217Zm-.254-.756 3.772-1.331-3.772 1.33Zm-2.412-5.055 3.406-2.098-3.406 2.098Zm-3.454-4.445 2.874-2.782-2.874 2.782Zm-.795-.786 2.752-2.903-2.752 2.903Zm-2.11-1.797 2.427-3.18-2.428 3.18Zm-.716-.528 2.318-3.26-2.318 3.26Zm-.738-.505 2.206-3.337-2.206 3.337Zm-.569-.366 2.12-3.393-2.12 3.393Zm-.977-.581 1.97-3.481-1.97 3.48Zm-1.94-.995 1.675-3.633-1.676 3.633Zm-.582-.26 1.587-3.672-1.587 3.672Zm-4.007-1.36.977-3.88-.977 3.88Zm-2.967-.568.524-3.966-.524 3.966Zm-4.486-.202-.166-3.996.166 3.996Zm-1.16.075-.346-3.985.345 3.985Zm-2.49.338-.729-3.933.729 3.933Zm-1.162.242-.907-3.895.907 3.895Zm-.582.143-.995-3.874.995 3.874Zm-2.324.713 1.348 3.766-1.348-3.766ZM39.688 68.72a4 4 0 1 0-7.37 3.11l7.37-3.11Zm-7.578 2.605a4 4 0 0 0 7.425-2.978l-7.425 2.978Zm5.972-13.796a4 4 0 1 0-7.945-.933l7.945.933Zm-.662-17.325a4 4 0 1 0 6.018 5.271l-6.018-5.271Zm14.87-.846a4 4 0 0 0-2.819-7.487l2.819 7.487Zm-2.56-7.583a4 4 0 0 0 2.751 7.512l-2.75-7.512Zm3.132 7.376a4 4 0 0 0-2.616-7.56l2.616 7.56Zm-2.23-7.69a4 4 0 1 0 2.515 7.594l-2.515-7.594ZM32.715 72.73a4 4 0 1 0 7.266-3.348l-7.266 3.347Zm7.482-2.893a4 4 0 1 0-7.19 3.51l7.19-3.51Zm-7.454 2.93a4 4 0 1 0 7.228-3.43l-7.228 3.43Zm7.482-2.894a4 4 0 0 0-7.228 3.43l7.228-3.43Zm-6.644 4.588a4 4 0 0 0 7.037-3.805l-7.037 3.805Zm7.353-3.24a4 4 0 0 0-6.922 4.01l6.922-4.01Zm-6.239 5.133a4 4 0 0 0 6.741-4.308l-6.74 4.308Zm7.047-3.842a4 4 0 1 0-6.63 4.478l6.63-4.478Zm-7.01 3.878a4 4 0 1 0 6.687-4.394l-6.686 4.394Zm7.049-3.843a4 4 0 1 0-6.686 4.394l6.686-4.394Zm-6.034 5.346a4 4 0 1 0 6.46-4.72l-6.46 4.72Zm6.732-4.356a4 4 0 1 0-6.361 4.852l6.36-4.852Zm-5.797 5.569a4 4 0 0 0 6.21-5.043l-6.21 5.043Zm6.454-4.748a4 4 0 1 0-6.121 5.15l6.121-5.15Zm-6.428 4.771a4 4 0 1 0 6.167-5.097l-6.166 5.097Zm6.455-4.748a4 4 0 0 0-6.166 5.097l6.166-5.097ZM37.615 80.2a4 4 0 1 0 5.961-5.335L37.615 80.2Zm6.269-4.999a4 4 0 1 0-5.85 5.458l5.85-5.458Zm-5.19 6.144a4 4 0 0 0 5.674-5.641l-5.673 5.64Zm5.97-5.349a4 4 0 0 0-5.565 5.747l5.565-5.747Zm-5.938 5.37a4 4 0 0 0 5.62-5.694l-5.62 5.694Zm5.97-5.348a4 4 0 1 0-5.62 5.694l5.62-5.694Zm-4.947 6.337a4 4 0 1 0 5.392-5.91l-5.392 5.91Zm5.692-5.642a4 4 0 1 0-5.284 6.007l5.284-6.007Zm-4.738 6.476a4 4 0 1 0 5.139-6.132l-5.139 6.132Zm5.338-5.967a4 4 0 1 0-5.067 6.191l5.067-6.19Zm-5.318 5.98a4 4 0 1 0 5.102-6.162l-5.102 6.162Zm5.337-5.967a4 4 0 1 0-5.102 6.162l5.102-6.162Zm-4.638 6.538a4 4 0 1 0 4.948-6.287l-4.948 6.287Zm5.16-6.122A4 4 0 0 0 41.712 84l4.87-6.347Zm-4.333 6.75a4 4 0 1 0 4.728-6.453l-4.728 6.453Zm5.01-6.25a4 4 0 0 0-4.625 6.527l4.626-6.527Zm-4.982 6.264a4 4 0 0 0 4.677-6.49l-4.677 6.49Zm5.011-6.25a4 4 0 1 0-4.677 6.491l4.677-6.49Zm-4.13 6.876a4 4 0 0 0 4.487-6.623l-4.487 6.623Zm4.684-6.49a4 4 0 0 0-4.416 6.67l4.416-6.67Zm-3.882 7.015a4 4 0 1 0 4.275-6.761l-4.275 6.761Zm4.57-6.578a4 4 0 1 0-4.169 6.828l4.17-6.828ZM43.99 85.58a4 4 0 0 0 4.222-6.795L43.99 85.58Zm4.57-6.579a4 4 0 0 0-4.222 6.795l4.222-6.795Zm-3.557 7.196a4 4 0 1 0 4-6.928l-4 6.928Zm4.294-6.761a4 4 0 0 0-3.894 6.988l3.894-6.988Zm-3.15 7.389a4 4 0 0 0 3.697-7.094l-3.698 7.094Zm4.088-6.895a4 4 0 0 0-3.558 7.165l3.558-7.165Zm-4.05 6.906a4 4 0 0 0 3.628-7.13l-3.628 7.13Zm4.089-6.895a4 4 0 1 0-3.628 7.13l3.628-7.13Zm-2.748 7.56a4 4 0 1 0 3.334-7.273L47.525 87.5Zm3.724-7.099a4 4 0 0 0-3.194 7.335l3.194-7.335Zm-2.453 7.646a4 4 0 1 0 2.998-7.417l-2.998 7.417Zm3.29-7.301a4 4 0 1 0-2.894 7.458l2.894-7.458Zm-3.262 7.308a4 4 0 0 0 2.946-7.438l-2.946 7.438Zm3.29-7.302a4 4 0 1 0-2.947 7.438l2.946-7.438Zm-2.29 7.69a4 4 0 0 0 2.727-7.522l-2.726 7.521Zm3.018-7.418a4 4 0 1 0-2.622 7.557l2.622-7.557Zm-1.991 7.769a4 4 0 0 0 2.456-7.614l-2.456 7.614Zm2.745-7.523a4 4 0 1 0-2.351 7.647l2.351-7.647ZM50.878 88.8a4 4 0 1 0 2.404-7.63l-2.404 7.63Zm2.745-7.523a4 4 0 0 0-2.403 7.63l2.404-7.63Zm-1.644 7.857a4 4 0 0 0 2.157-7.703l-2.157 7.703Zm2.543-7.599a4 4 0 0 0-2.02 7.741l2.02-7.74Zm-1.182 7.947a4 4 0 0 0 1.798-7.796l-1.798 7.796Zm2.182-7.71a4 4 0 0 0-1.659 7.826l1.659-7.827Zm-2.146 7.712a4 4 0 0 0 1.728-7.811l-1.728 7.811Zm2.182-7.71a4 4 0 1 0-1.728 7.81l1.728-7.81Zm-.86 7.988a4 4 0 0 0 1.438-7.87l-1.437 7.87Zm1.82-7.803a4 4 0 1 0-1.298 7.894l1.299-7.894Zm-.464 8.02a4 4 0 0 0 1.077-7.928l-1.077 7.927Zm1.459-7.88a4 4 0 0 0-.94 7.945l.94-7.945Zm-1.424 7.878a4 4 0 1 0 1.008-7.936l-1.008 7.936Zm1.46-7.879a4 4 0 1 0-1.009 7.936l1.008-7.936Zm-.143 8.033a4 4 0 0 0 .717-7.968l-.717 7.968Zm1.098-7.937a4 4 0 0 0-.58 7.979l.58-7.98Zm.25 8.028a4 4 0 1 0 .358-7.992l-.358 7.992Zm.738-7.979a4 4 0 0 0-.22 7.997l.22-7.997Zm-.703 7.974a4 4 0 0 0 .29-7.994l-.29 7.995Zm.738-7.978a4 4 0 0 0-.29 7.995l.29-7.995Zm.572 8.013a4 4 0 0 0 0-8v8Zm.379-8.004a4 4 0 0 0 .138 8l-.139-8Zm.964 7.974a4 4 0 1 0-.36-7.992l.36 7.992Zm.018-8.013a4 4 0 1 0 .497 7.985l-.497-7.985Zm.016 8.005a4 4 0 0 0-.428-7.988l.428 7.988Zm.018-8.012a4 4 0 0 0 .428 7.988l-.428-7.988Zm1.344 7.924a4 4 0 0 0-.732-7.966l.732 7.966Zm-.303-8.01a4 4 0 0 0 .889 7.95l-.889-7.95Zm1.915 7.818a4 4 0 0 0-1.162-7.915l1.162 7.915Zm-.651-7.997a4 4 0 0 0 1.348 7.886l-1.348-7.886Zm.696 7.98a4 4 0 1 0-1.255-7.901l1.255 7.9Zm-.652-7.998A4 4 0 0 0 65.1 89.82l-1.256-7.9Zm2.269 7.723a4 4 0 0 0-1.605-7.838l1.605 7.838Zm-1.23-7.918a4 4 0 1 0 1.74 7.809l-1.74-7.809Zm2.408 7.652a4 4 0 0 0-1.918-7.767l1.918 7.767Zm-1.679-7.828a4 4 0 1 0 2.005 7.745l-2.005-7.745Zm1.7 7.82a4 4 0 0 0-1.961-7.756l1.961 7.756Zm-1.679-7.827a4 4 0 0 0 1.962 7.755l-1.962-7.755Zm2.652 7.571a4 4 0 0 0-2.181-7.697l2.18 7.697Zm-1.807-7.806a4 4 0 0 0 2.315 7.657l-2.315-7.657Zm3.127 7.4a4 4 0 0 0-2.529-7.59l2.529 7.59Zm-2.155-7.719a4 4 0 1 0 2.662 7.545l-2.662-7.545Zm2.186 7.702a4 4 0 0 0-2.595-7.568l2.595 7.568Zm-2.155-7.719a4 4 0 1 0 2.596 7.568l-2.596-7.568Zm3.158 7.37a4 4 0 1 0-2.8-7.494l2.8 7.494ZM67.954 80.8a4 4 0 0 0 2.84 7.48l-2.84-7.48Zm3.84 7.08a4 4 0 1 0-3.101-7.375l3.1 7.374Zm-2.306-7.728a4 4 0 1 0 3.385 7.249l-3.385-7.249Zm5.122 6.369a4 4 0 0 0-3.844-7.016l3.844 7.016Zm-3.046-7.475a4 4 0 1 0 4.133 6.85l-4.133-6.85Zm3.103 7.406a4 4 0 0 0-3.99-6.935l3.99 6.934Zm-3.048-7.477a4 4 0 0 0 3.99 6.934l-3.99-6.934Zm5.514 5.997a4 4 0 0 0-4.516-6.603l4.516 6.603Zm-3.99-6.975a4 4 0 0 0 4.708 6.468l-4.707-6.468Zm5.907 5.549a4 4 0 0 0-5.028-6.223l5.028 6.223Zm-4.46-6.697a4 4 0 0 0 5.234 6.05l-5.234-6.05Zm4.498 6.638a4 4 0 1 0-5.131-6.137l5.132 6.137Zm-4.46-6.698a4 4 0 0 0 5.131 6.137l-5.132-6.137Zm6.234 5.169a4 4 0 0 0-5.512-5.799l5.512 5.799ZM75.74 75.78a4 4 0 0 0 5.653 5.66l-5.653-5.66Zm6.449 4.834a4 4 0 1 0-5.865-5.44l5.865 5.44Zm-5.524-5.817a4 4 0 0 0 5.99 5.304l-5.99-5.304Zm5.548 5.776a4 4 0 1 0-5.928-5.372l5.928 5.372Zm-5.525-5.817a4 4 0 0 0 5.928 5.372l-5.928-5.372Zm6.676 4.514a4 4 0 0 0-6.178-5.083l6.178 5.083Zm-5.868-5.469a4 4 0 1 0 6.29 4.944l-6.29-4.944Zm6.956 4.063a4 4 0 0 0-6.466-4.71l6.466 4.71Zm-6.165-5.133a4 4 0 1 0 6.575 4.557l-6.575-4.558Zm6.184 5.09a4 4 0 0 0-6.521-4.635l6.52 4.634Zm-6.166-5.135a4 4 0 1 0 6.521 4.634l-6.52-4.634Zm7.175 3.674a4 4 0 0 0-6.739-4.312l6.739 4.312Zm-6.472-4.74a4 4 0 1 0 6.835 4.158l-6.835-4.158Zm7.37 3.242a4 4 0 1 0-6.976-3.915l6.976 3.915Zm-6.75-4.328a4 4 0 0 0 7.057 3.768l-7.057-3.768Zm6.763 4.288a4 4 0 1 0-7.017-3.843l7.017 3.843Zm-6.75-4.33a4 4 0 0 0 7.016 3.843l-7.016-3.842Zm7.505 2.91a4 4 0 0 0-7.179-3.53l7.179 3.53Zm-6.98-3.944a4 4 0 1 0 7.25 3.382l-7.25-3.382Zm7.62 2.557a4 4 0 1 0-7.348-3.164l7.347 3.164Zm-7.204-3.507a4 4 0 1 0 7.4 3.042l-7.4-3.042Zm7.212 3.475a4 4 0 0 0-7.374-3.103l7.374 3.103Zm-7.204-3.508a4 4 0 1 0 7.374 3.103l-7.374-3.103Zm7.716 2.251a4 4 0 1 0-7.485-2.824l7.485 2.824Zm-7.333-3.24a4 4 0 1 0 7.54 2.676l-7.54-2.675Zm7.849 1.757a4 4 0 1 0-7.621-2.432l7.62 2.432Zm-7.49-2.862a4 4 0 0 0 7.67 2.279l-7.67-2.279Zm7.495 2.822a4 4 0 0 0-7.646-2.356l7.646 2.356Zm-7.49-2.862a4 4 0 0 0 7.646 2.355l-7.646-2.355Zm7.924 1.391a4 4 0 0 0-7.737-2.033l7.737 2.033Zm-7.63-2.456a4 4 0 1 0 7.775 1.88l-7.775-1.88Zm7.973 1.007a4 4 0 0 0-7.828-1.65l7.828 1.65Zm-7.752-2.028a4 4 0 0 0 7.856 1.512l-7.856-1.512Zm7.754 1.992a4 4 0 0 0-7.843-1.58l7.843 1.58Zm-7.752-2.028a4 4 0 1 0 7.842 1.581l-7.843-1.58Zm8.001.723a4 4 0 1 0-7.895-1.293l7.895 1.293Zm-7.836-1.672a4 4 0 1 0 7.916 1.157l-7.916-1.157Zm8.013.434a4 4 0 0 0-7.942-.964l7.942.964Zm-7.91-1.248a4 4 0 1 0 7.954.862l-7.953-.862Zm7.91 1.222a4 4 0 1 0-7.948-.913l7.947.913Zm-7.91-1.248a4 4 0 1 0 7.948.913l-7.948-.913Zm8.023.166a4 4 0 1 0-7.971-.67l7.971.67Zm-7.943-1.048a4 4 0 1 0 7.982.532l-7.982-.532Zm8.03-.397a4 4 0 0 0-7.995-.284l7.995.284Zm-7.983-.757a4 4 0 0 0 7.999.112l-8-.112Zm7.975.714a4 4 0 0 0-7.997-.199l7.997.2Zm-7.983-.757a4 4 0 1 0 7.997.198l-7.997-.198Zm8.005-.773a4 4 0 1 0-7.998.135l7.998-.136Zm-8.008-.243a4 4 0 0 0 7.995-.273l-7.995.273Zm7.956-1.1a4 4 0 1 0-7.985.495l7.985-.494Zm-8.012.116a4 4 0 0 0 7.975-.631l-7.975.631Zm8.004-.15a4 4 0 1 0-7.98.563l7.98-.562Zm-8.012.116a4 4 0 0 0 7.98-.562l-7.98.562Zm7.906-1.423a4 4 0 1 0-7.954.852l7.954-.852Zm-7.998.474a4 4 0 0 0 7.939-.99l-7.939.99Zm7.808-1.92a4 4 0 0 0-7.904 1.239l7.904-1.239Zm-7.983.766a4 4 0 1 0 7.875-1.41l-7.875 1.41Zm7.967-.807a4 4 0 1 0-7.89 1.324l7.89-1.324Zm-7.983.765a4 4 0 0 0 7.89-1.324l-7.89 1.324Zm7.71-2.296a4 4 0 1 0-7.827 1.657l7.826-1.657Zm-7.91 1.278a4 4 0 1 0 7.795-1.794l-7.796 1.794Zm7.538-2.827a4 4 0 1 0-7.728 2.068l7.728-2.068Zm-7.888 1.499a4 4 0 1 0 7.67-2.272l-7.67 2.272Zm7.395-3.154a4 4 0 1 0-7.598 2.504l7.597-2.504Zm-7.681 2.257a4 4 0 0 0 7.568-2.592l-7.568 2.592Zm7.67-2.279a4 4 0 0 0-7.582 2.549l7.583-2.549Zm-7.68 2.258a4 4 0 1 0 7.583-2.548l-7.583 2.548Zm-.588-1.535a4 4 0 0 0 7.357-3.143l-7.357 3.143Zm7.594-2.57a4 4 0 0 0-7.419 2.992l7.42-2.993Zm-7.215 3.515a4 4 0 0 0 7.49-2.808l-7.49 2.808Zm7.605-2.497a4 4 0 0 0-7.52 2.727l7.52-2.727Zm-8.496.44a4 4 0 0 0 7.175-3.54l-7.175 3.54Zm7.455-2.956a4 4 0 1 0-7.248 3.386l7.248-3.386Zm-7.481 2.921a4 4 0 0 0 7.212-3.463l-7.212 3.463Zm7.455-2.956a4 4 0 0 0-7.212 3.463l7.212-3.463Zm-8.165 1.62a4 4 0 0 0 6.908-4.033l-6.908 4.034Zm7.345-3.26a4 4 0 1 0-7.025 3.829l7.025-3.828Zm-7.932 2.312a4 4 0 0 0 6.696-4.378l-6.696 4.378Zm6.94-4a4 4 0 1 0-6.761 4.278l6.76-4.278Zm-6.96 3.977a4 4 0 1 0 6.729-4.328l-6.729 4.328Zm6.94-4a4 4 0 1 0-6.729 4.328l6.728-4.328Zm-7.494 3.187a4 4 0 0 0 6.486-4.682l-6.486 4.682Zm6.815-4.218a4 4 0 0 0-6.575 4.559l6.575-4.559Zm-7.47 3.356a4 4 0 0 0 6.247-4.997l-6.248 4.997Zm6.597-4.55a4 4 0 1 0-6.34 4.878l6.34-4.878Zm-6.627 4.524a4 4 0 0 0 6.295-4.937l-6.295 4.937Zm6.599-4.55a4 4 0 0 0-6.295 4.938l6.295-4.938Zm-7.241 3.776a4 4 0 0 0 6.002-5.288l-6.002 5.288Zm6.355-4.88a4 4 0 0 0-6.097 5.179l6.097-5.18Zm-6.904 4.28a4 4 0 1 0 5.802-5.508l-5.803 5.508Zm6.06-5.232a4 4 0 1 0-5.871 5.433l5.871-5.433Zm-6.08 5.215a4 4 0 0 0 5.837-5.47l-5.837 5.47Zm6.061-5.232a4 4 0 0 0-5.837 5.47l5.837-5.47Zm-6.657 4.625a4 4 0 1 0 5.579-5.733l-5.58 5.733Zm5.931-5.385a4 4 0 1 0-5.672 5.641l5.672-5.64Zm-6.525 4.828a4 4 0 1 0 5.363-5.935l-5.363 5.935Zm5.656-5.668a4 4 0 1 0-5.442 5.865l5.442-5.865Zm-5.678 5.653a4 4 0 1 0 5.403-5.9l-5.403 5.9Zm5.656-5.669a4 4 0 1 0-5.403 5.9l5.403-5.9Zm-6.315 5.094a4 4 0 0 0 5.116-6.15l-5.116 6.15Zm5.503-5.823a4 4 0 1 0-5.22 6.063l5.22-6.063Zm-6.073 5.364a4 4 0 1 0 4.91-6.315l-4.91 6.315Zm5.168-6.113a4 4 0 1 0-4.979 6.262l4.98-6.262Zm-5.187 6.102a4 4 0 1 0 4.945-6.289l-4.945 6.289Zm5.169-6.113a4 4 0 1 0-4.945 6.288l4.945-6.288Zm-5.72 5.695a4 4 0 1 0 4.704-6.47l-4.704 6.47Zm5.021-6.236a4 4 0 1 0-4.788 6.408l4.788-6.408Zm-5.64 5.802a4 4 0 0 0 4.48-6.627l-4.48 6.627Zm4.808-6.403a4 4 0 0 0-4.568 6.568l4.568-6.568Zm-4.832 6.39a4 4 0 1 0 4.525-6.596l-4.525 6.597Zm4.808-6.402a4 4 0 1 0-4.525 6.597l4.525-6.597Zm-5.312 6.07a4 4 0 1 0 4.292-6.752l-4.292 6.751Zm4.544-6.59a4 4 0 0 0-4.358 6.709l4.358-6.709Zm-5.264 6.15a4 4 0 0 0 4.033-6.909l-4.033 6.91Zm4.466-6.651a4 4 0 0 0-4.148 6.84l4.148-6.84Zm-4.497 6.639a4 4 0 0 0 4.09-6.875l-4.09 6.875Zm4.466-6.652a4 4 0 1 0-4.09 6.876l4.09-6.876Zm-5.327 6.17a4 4 0 1 0 3.713-7.085l-3.713 7.086Zm4.194-6.828a4 4 0 0 0-3.84 7.018l3.84-7.018Zm-4.98 6.436a4 4 0 1 0 3.43-7.227l-3.43 7.227Zm3.81-7.044a4 4 0 0 0-3.531 7.18l3.53-7.18Zm-3.837 7.035a4 4 0 0 0 3.481-7.202l-3.481 7.203Zm3.81-7.043a4 4 0 1 0-3.48 7.203l3.48-7.203Zm-4.349 6.793a4 4 0 0 0 3.229-7.32l-3.229 7.32Zm3.486-7.204a4 4 0 1 0-3.296 7.29l3.296-7.29Zm-4.148 6.925a4 4 0 0 0 2.99-7.42l-2.99 7.42Zm3.377-7.261a4 4 0 0 0-3.093 7.378l3.093-7.378Zm-3.404 7.254a4 4 0 1 0 3.041-7.4l-3.041 7.4Zm3.377-7.262a4 4 0 1 0-3.042 7.4l3.042-7.4Zm-3.92 7.048a4 4 0 1 0 2.787-7.499l-2.787 7.5Zm3.044-7.402a4 4 0 1 0-2.854 7.474l2.854-7.474Zm-3.707 7.168a4 4 0 0 0 2.55-7.583l-2.55 7.583Zm2.935-7.45a4 4 0 1 0-2.65 7.547l2.65-7.548Zm-2.961 7.444a4 4 0 1 0 2.6-7.565l-2.6 7.565Zm2.935-7.45a4 4 0 1 0-2.6 7.566l2.6-7.566Zm-3.502 7.265a4 4 0 0 0 2.335-7.651l-2.335 7.652Zm2.611-7.565a4 4 0 0 0-2.408 7.629l2.408-7.63Zm-3.395 7.342a4 4 0 1 0 2.054-7.732l-2.054 7.732Zm2.523-7.603a4 4 0 0 0-2.178 7.698l2.178-7.698Zm-2.555 7.6a4 4 0 1 0 2.116-7.716l-2.116 7.715Zm2.523-7.604a4 4 0 0 0-2.116 7.715l2.116-7.715Zm-3.315 7.405a4 4 0 0 0 1.758-7.805l-1.758 7.805Zm2.171-7.709a4 4 0 1 0-1.867 7.78l1.867-7.78Zm-2.925 7.553a4 4 0 1 0 1.485-7.861l-1.485 7.86Zm1.871-7.786a4 4 0 1 0-1.587 7.841l1.587-7.84Zm-1.898 7.784a4 4 0 0 0 1.537-7.851l-1.537 7.85Zm1.872-7.786a4 4 0 0 0-1.536 7.852l1.536-7.852Zm-2.754 7.636a4 4 0 1 0 1.157-7.916l-1.157 7.915Zm1.672-7.837a4 4 0 0 0-1.293 7.895l1.294-7.895Zm-2.656 7.715a4 4 0 0 0 .8-7.96l-.8 7.96Zm1.316-7.903a4 4 0 1 0-.938 7.945l.938-7.945Zm-1.35 7.905a4 4 0 0 0 .868-7.952l-.869 7.952Zm1.315-7.904a4 4 0 0 0-.869 7.953l.869-7.953Zm-2.265 7.825a4 4 0 1 0 .443-7.987l-.443 7.987Zm.959-7.954a4 4 0 0 0-.58 7.979l.58-7.98Zm-1.773 7.924a4 4 0 0 0 .148-7.998l-.148 7.998Zm.535-7.989a4 4 0 0 0-.25 7.997l.25-7.997Zm-.56 7.992a4 4 0 0 0 .198-7.998l-.198 7.998Zm.534-7.99a4 4 0 0 0-.199 7.998l.199-7.997Zm-1.49 7.991a4 4 0 0 0-.211-7.997l.21 7.997Zm.361-8.006a4 4 0 1 0 .058 8l-.058-8Zm-1.377 8.057a4 4 0 1 0-.581-7.98l.58 7.98Zm-.066-8.012a4 4 0 0 0 .443 7.987l-.443-7.987Zm.032 8.02a4 4 0 1 0-.512-7.984l.512 7.984Zm-.066-8.013a4 4 0 0 0 .512 7.984l-.512-7.984Zm-.882 8.099a4 4 0 0 0-.94-7.945l.94 7.945Zm-.424-8.002a4 4 0 1 0 .801 7.96l-.801-7.96Zm-.657 8.157a4 4 0 1 0-1.333-7.889l1.333 7.889Zm-.743-7.982a4 4 0 0 0 1.175 7.913l-1.175-7.913Zm.705 7.995a4 4 0 0 0-1.254-7.9l1.254 7.9Zm-.743-7.982a4 4 0 1 0 1.254 7.901l-1.254-7.901Zm-.89 8.317a4 4 0 1 0-1.937-7.761l1.938 7.761Zm-1.679-7.825a4 4 0 0 0 1.869 7.78l-1.869-7.78Zm2.322 7.675a4 4 0 0 0-1.704-7.816l1.704 7.816Zm-1.189-7.924a4 4 0 1 0 1.568 7.845l-1.568-7.845Zm-.46 8.35a4 4 0 0 0-2.298-7.662l2.298 7.663Zm-1.655-7.847a4 4 0 0 0 2.13 7.711l-2.13-7.711Zm1.615 7.87a4 4 0 1 0-2.213-7.688l2.213 7.687Zm-1.655-7.85a4 4 0 0 0 2.214 7.688l-2.214-7.687Zm-12.241 37.98a22.383 22.383 0 0 1-.128-.296l-7.37 3.11c.057.135.114.269.173.402l7.325-3.216Zm-.281-.67c-.04-.1-.08-.2-.118-.3l-7.467 2.873c.052.136.106.271.16.406l7.425-2.978Zm-.118-.3a22.04 22.04 0 0 1-1.335-10.517l-7.945-.933A30.04 30.04 0 0 0 31.95 70.92l7.467-2.873Zm4.021-22.57a22.038 22.038 0 0 1 8.699-6.06l-2.873-7.466a30.039 30.039 0 0 0-11.844 8.254l6.018 5.271Zm8.699-6.06.153-.058-2.819-7.487-.207.079 2.873 7.466Zm.344-.13.154-.055-2.697-7.532-.208.076 2.751 7.512Zm.154-.055.227-.08-2.616-7.56-.308.108 2.697 7.532Zm.512-.176.228-.074-2.433-7.621-.31.1 2.515 7.595ZM32.49 72.232c.073.167.148.333.224.498l7.266-3.347a22.176 22.176 0 0 1-.165-.367l-7.325 3.216Zm.517 1.116c.08.164.161.327.244.49l7.125-3.64-.18-.36-7.19 3.51Zm-.469-1.01.204.43 7.228-3.43-.204-.428-7.228 3.428Zm.458.965.203.429 7.228-3.429-.203-.429-7.228 3.43Zm.255.534c.107.21.217.418.329.625l7.037-3.805a21.711 21.711 0 0 1-.241-.459l-7.125 3.64Zm.76 1.395c.118.204.238.406.36.607l6.827-4.171c-.09-.147-.178-.296-.264-.445l-6.923 4.009Zm.36.607c.106.173.214.345.323.516l6.741-4.308a22.07 22.07 0 0 1-.237-.379l-6.826 4.17Zm.74 1.152c.115.168.23.335.347.5l6.537-4.61c-.086-.122-.17-.245-.254-.368l-6.63 4.478Zm-.669-1.041.29.44 6.686-4.393-.29-.44-6.686 4.393Zm.652.992.29.44 6.685-4.393-.29-.44-6.685 4.393Zm.364.55.288.402 6.46-4.72a22.196 22.196 0 0 1-.211-.294l-6.537 4.612Zm.658.897c.1.132.202.262.304.392l6.28-4.956c-.075-.095-.149-.19-.222-.287l-6.361 4.852Zm.304.392c.086.109.173.218.261.326l6.21-5.043c-.064-.08-.128-.159-.19-.24l-6.281 4.957Zm.594.728.27.318 6.05-5.235a22.17 22.17 0 0 1-.199-.233l-6.121 5.15Zm-.537-.658.23.28 6.167-5.098-.23-.279-6.167 5.097Zm.519.628.23.279 6.167-5.097-.231-.28-6.166 5.098Zm.289.348c.108.126.218.25.329.374l5.961-5.335a21.72 21.72 0 0 1-.241-.274l-6.05 5.235Zm.748.833c.114.121.228.242.343.36l5.758-5.553a21.713 21.713 0 0 1-.251-.265l-5.85 5.458Zm.343.36c.105.11.211.218.318.326l5.673-5.641a21.81 21.81 0 0 1-.233-.238l-5.758 5.554Zm.722.724c.109.106.218.21.328.314l5.478-5.83a22.74 22.74 0 0 1-.24-.23l-5.566 5.746Zm-.653-.653.28.276 5.62-5.694-.28-.276-5.62 5.694Zm.63.622.28.277 5.62-5.694-.28-.277-5.62 5.694Zm.351.345c.107.1.214.2.322.298l5.392-5.91c-.079-.072-.158-.145-.236-.219l-5.478 5.83Zm.73.663c.11.097.22.192.331.287l5.196-6.083-.243-.21-5.284 6.006Zm.331.287.215.182 5.139-6.132a22.219 22.219 0 0 1-.158-.133l-5.196 6.083Zm.486.406.219.178 5.008-6.239a22.222 22.222 0 0 1-.16-.13l-5.067 6.191Zm-.44-.367.189.156 5.102-6.162-.188-.155-5.102 6.161Zm.424.35.188.156 5.102-6.161-.188-.156-5.102 6.162Zm.235.195.23.182 4.947-6.287a24.097 24.097 0 0 1-.169-.134l-5.008 6.239Zm.518.407.233.177 4.81-6.394a23.426 23.426 0 0 1-.172-.13L41.712 84Zm.233.177.305.226 4.728-6.453a22.32 22.32 0 0 1-.224-.167l-4.809 6.394Zm.69.503.31.218 4.544-6.585a22.76 22.76 0 0 1-.228-.16l-4.626 6.527Zm-.624-.455.267.192 4.677-6.49-.267-.192-4.677 6.49Zm.6.433.268.192 4.677-6.49-.267-.192-4.677 6.49Zm.334.24.214.145 4.487-6.623a24.054 24.054 0 0 1-.157-.107l-4.544 6.585Zm.482.325.216.142 4.36-6.708-.16-.105-4.416 6.67Zm.216.142c.105.068.211.136.318.203l4.275-6.761-.234-.15-4.36 6.708Zm.72.453.323.195 4.083-6.88-.238-.143-4.169 6.828Zm-.652-.41.279.173 4.222-6.795-.278-.173-4.223 6.795Zm.627.39.278.172 4.223-6.794-.279-.174-4.222 6.795Zm.348.215c.105.062.21.124.317.185l4-6.928c-.078-.045-.156-.09-.234-.137l-4.083 6.88Zm.717.412c.107.06.214.119.322.177l3.81-7.035c-.08-.043-.16-.086-.238-.13l-3.894 6.988Zm.322.177c.14.076.28.15.421.224l3.698-7.094a22.958 22.958 0 0 1-.31-.165l-3.809 7.035Zm.953.494c.142.071.285.14.428.209l3.445-7.22-.316-.154-3.558 7.165Zm-.862-.446.369.188 3.628-7.13-.37-.188-3.627 7.13Zm.83.422.368.188 3.628-7.13-.368-.188-3.628 7.13Zm.46.233c.14.067.28.132.42.196l3.334-7.272a22.246 22.246 0 0 1-.31-.145l-3.444 7.22Zm.95.433c.141.062.284.122.426.182l3.082-7.383a21.13 21.13 0 0 1-.314-.134l-3.194 7.335Zm.426.182.315.13 2.998-7.418a21.283 21.283 0 0 1-.231-.095l-3.082 7.383Zm.711.286c.106.041.212.082.318.121l2.81-7.49-.234-.09-2.894 7.459Zm-.643-.259.275.11 2.946-7.439-.275-.109-2.946 7.438Zm.618.245.275.11 2.946-7.439-.275-.108-2.946 7.437Zm.343.135c.105.04.21.078.315.116l2.726-7.52a23.748 23.748 0 0 1-.231-.086l-2.81 7.49Zm.71.257.317.108 2.538-7.587a21.368 21.368 0 0 1-.233-.08l-2.622 7.558Zm.317.108.314.103 2.456-7.614-.232-.076-2.538 7.587Zm.708.227.316.095 2.268-7.672a23.927 23.927 0 0 1-.233-.07l-2.351 7.647Zm-.64-.206.273.087 2.404-7.63-.274-.087-2.404 7.63Zm.615.194.273.087 2.404-7.63-.273-.087-2.404 7.63Zm.341.107c.139.041.278.081.418.12l2.157-7.703a23.366 23.366 0 0 1-.307-.089l-2.268 7.672Zm.942.262c.14.037.28.072.42.107l1.908-7.77a21.903 21.903 0 0 1-.31-.078l-2.018 7.741Zm.42.107.417.099 1.798-7.796a22.718 22.718 0 0 1-.307-.073l-1.907 7.77Zm.94.215c.14.03.28.058.42.085l1.547-7.849c-.103-.02-.206-.04-.308-.063l-1.659 7.827Zm-.85-.194.363.08 1.728-7.811-.362-.08-1.728 7.81Zm.817.18.363.08 1.727-7.81-.362-.08-1.728 7.81Zm.453.1c.138.027.277.053.416.078l1.437-7.87a22.242 22.242 0 0 1-.306-.058l-1.547 7.85Zm.937.169c.14.023.279.045.419.066l1.187-7.912a22.796 22.796 0 0 1-.307-.048l-1.299 7.894Zm.419.066.415.06 1.077-7.928a22.36 22.36 0 0 1-.305-.044l-1.188 7.912Zm.935.125c.139.016.278.032.417.046l.828-7.957c-.102-.01-.204-.022-.306-.034l-.94 7.945Zm-.846-.113.361.046 1.008-7.936-.36-.046-1.009 7.936Zm.812.103.36.046 1.009-7.936-.36-.046-1.009 7.936Zm.45.056c.139.015.277.028.416.04l.717-7.967a22.04 22.04 0 0 1-.304-.03l-.828 7.957Zm.934.083c.139.01.278.02.416.027l.469-7.986a20.626 20.626 0 0 1-.305-.02l-.58 7.979Zm.416.027.414.022.358-7.992a21.94 21.94 0 0 1-.303-.016l-.469 7.986Zm.932.04.414.009.11-8a21.957 21.957 0 0 1-.304-.006l-.22 7.997Zm-.842-.035.359.013.29-7.995-.36-.013-.29 7.995Zm.807.029.36.013.289-7.995-.36-.013-.289 7.995Zm.45.015c.137.002.275.003.413.003l-.001-8-.303-.002-.11 7.999Zm.929-.002c.138-.002.275-.005.413-.01l-.249-7.996c-.1.003-.202.006-.303.007l.139 8Zm.413-.01c.138-.004.275-.01.413-.016l-.36-7.991-.302.011.25 7.996Zm.928-.043.412-.028-.607-7.978c-.1.008-.201.015-.302.021l.497 7.985Zm-.838.04.357-.02-.428-7.988-.357.019.428 7.988Zm.803-.044.357-.019-.428-7.988-.357.019.428 7.988Zm.447-.024c.156-.012.313-.026.47-.04l-.733-7.966c-.115.01-.23.02-.344.028l.607 7.978Zm1.055-.1c.156-.017.311-.036.467-.056l-1.013-7.935c-.114.014-.229.028-.343.04l.889 7.951Zm.467-.056c.187-.023.373-.049.56-.076l-1.163-7.915c-.137.02-.273.038-.41.056l1.013 7.935Zm1.256-.187c.185-.032.37-.065.555-.1l-1.496-7.86c-.136.027-.272.051-.407.074l1.348 7.886Zm-1.135.17.483-.077-1.255-7.9-.483.076 1.255 7.901Zm1.087-.173.483-.076-1.256-7.901-.483.076L65.1 89.82Zm.603-.097c.137-.026.273-.053.41-.081l-1.605-7.838-.301.06 1.496 7.859Zm.92-.19c.136-.03.271-.062.407-.094l-1.85-7.784-.298.07 1.741 7.808Zm.407-.094a34.2 34.2 0 0 0 .261-.063l-1.918-7.767-.192.046 1.849 7.784Zm.587-.146.26-.068-2.074-7.727-.19.05 2.004 7.745Zm-.531.132.226-.057-1.961-7.756-.226.057 1.961 7.756Zm.509-.129.226-.057-1.962-7.755-.226.057 1.962 7.755Zm.282-.071c.136-.037.272-.074.408-.113l-2.181-7.697c-.1.029-.2.056-.3.083l2.073 7.727Zm.916-.262c.135-.04.27-.082.404-.125l-2.421-7.625-.298.093 2.315 7.657Zm.404-.125c.136-.043.272-.087.408-.133l-2.529-7.59c-.1.034-.2.067-.3.098l2.421 7.625Zm.915-.306c.134-.048.268-.096.403-.146l-2.767-7.506c-.1.037-.199.072-.298.107l2.662 7.545Zm-.828.277.352-.12-2.595-7.568-.352.121 2.595 7.567Zm.793-.271.352-.121-2.596-7.567-.352.12 2.596 7.568Zm.438-.152.124-.046-2.8-7.494-.091.034 2.767 7.506Zm.28-.105.125-.047-2.873-7.467-.092.035 2.84 7.48Zm.125-.047c.294-.114.586-.231.875-.353l-3.101-7.374c-.214.09-.43.176-.647.26l2.873 7.467Zm1.954-.831c.286-.134.57-.271.85-.413l-3.61-7.14a22.59 22.59 0 0 1-.625.304l3.385 7.249Zm.85-.413c.299-.151.594-.307.887-.467l-3.844-7.016c-.215.117-.432.232-.652.343l3.608 7.14Zm1.974-1.093c.287-.173.57-.35.85-.532l-4.359-6.708c-.205.133-.413.263-.624.39l4.133 6.85Zm-1.784.99.754-.433-3.99-6.935-.754.434 3.99 6.934Zm1.696-.976.754-.433-3.99-6.934-.754.433 3.99 6.934Zm.939-.546a30.5 30.5 0 0 0 .585-.39l-4.516-6.604c-.142.096-.285.192-.429.286l4.36 6.707Zm1.303-.898c.19-.138.378-.278.564-.42l-4.858-6.356c-.136.104-.274.207-.413.308l4.707 6.468Zm.564-.42c.214-.164.426-.33.635-.5l-5.028-6.222c-.153.124-.308.246-.465.366l4.858 6.356Zm1.41-1.147c.203-.176.404-.355.602-.536l-5.395-5.906a21.79 21.79 0 0 1-.442.393l5.234 6.05Zm-1.273 1.037.536-.448-5.131-6.137-.537.448 5.132 6.137Zm1.207-1.009.537-.449-5.132-6.137-.537.449 5.132 6.137Zm.668-.564c.147-.133.291-.268.434-.404L75.35 76.16c-.105.1-.211.199-.318.297l5.395 5.906Zm.966-.922c.14-.14.278-.28.415-.423l-5.764-5.548c-.1.105-.202.208-.304.31l5.653 5.661Zm.415-.423c.128-.133.255-.268.38-.403l-5.864-5.44-.28.295 5.764 5.548Zm.846-.916c.123-.139.244-.278.364-.419l-6.086-5.192c-.088.103-.177.205-.267.307l5.99 5.304Zm-.764.828.323-.356-5.928-5.372-.322.356 5.927 5.372Zm.726-.8.323-.357-5.928-5.372-.323.356 5.928 5.372Zm.402-.447c.116-.136.231-.274.346-.412l-6.178-5.083-.254.303 6.086 5.192Zm.767-.937c.112-.141.221-.283.33-.426l-6.377-4.83c-.08.104-.16.209-.242.312l6.29 4.944Zm.33-.426c.114-.15.226-.302.337-.455l-6.466-4.71c-.082.112-.165.224-.249.334l6.378 4.83Zm.747-1.031a29.6 29.6 0 0 0 .318-.468l-6.66-4.434c-.076.116-.154.23-.233.344l6.575 4.558Zm-.675.932.284-.4-6.521-4.634-.285.4 6.522 4.634Zm.64-.9.284-.4-6.522-4.634-.284.4 6.521 4.634Zm.353-.5c.101-.153.201-.306.3-.46l-6.739-4.312c-.073.114-.146.226-.22.338l6.659 4.434Zm.663-1.042c.095-.157.189-.314.281-.472l-6.909-4.033c-.068.116-.137.232-.207.347l6.835 4.158Zm.281-.472c.086-.147.17-.295.254-.444l-6.976-3.915c-.061.109-.124.218-.187.326l6.909 4.033Zm.561-1.004c.08-.15.16-.302.237-.453l-7.12-3.648a21.98 21.98 0 0 1-.174.333l7.057 3.768Zm-.507.909.213-.39-7.017-3.842-.213.39 7.017 3.842Zm.48-.876.213-.39-7.017-3.841-.213.389 7.016 3.842Zm.264-.486c.076-.148.15-.297.224-.447l-7.179-3.53c-.054.11-.109.22-.165.328l7.12 3.649Zm.494-1.01c.07-.15.14-.302.207-.453l-7.305-3.263c-.05.112-.1.224-.152.335l7.25 3.382Zm.207-.453a31.2 31.2 0 0 0 .162-.37l-7.347-3.165-.12.272 7.305 3.263Zm.358-.836c.052-.125.102-.25.152-.375l-7.44-2.943a22.71 22.71 0 0 1-.11.276l7.398 3.042Zm-.324.756.137-.323-7.374-3.103-.136.323 7.373 3.103Zm.307-.728.136-.323-7.374-3.103-.136.323 7.374 3.103Zm.169-.403c.059-.15.116-.299.173-.449l-7.485-2.824c-.042.11-.084.22-.128.33l7.44 2.943Zm.38-1.013.157-.455-7.581-2.555-.116.335 7.54 2.675Zm.157-.455c.052-.154.102-.308.152-.464L81.2 66.812a22.33 22.33 0 0 1-.112.341l7.58 2.555Zm.332-1.047c.046-.156.091-.313.135-.47l-7.704-2.154-.1.345 7.669 2.279Zm-.3.948.125-.405-7.646-2.356-.125.405 7.646 2.356Zm.28-.912.125-.405-7.645-2.355-.125.405 7.646 2.355Zm.155-.505c.043-.153.084-.306.124-.459L81.524 65.7l-.091.337 7.704 2.154Zm.27-1.035.108-.462-7.805-1.758c-.025.113-.052.227-.08.34l7.776 1.88Zm.108-.462.09-.411-7.829-1.65-.066.303 7.805 1.758Zm.193-.927.077-.413-7.876-1.403a21.97 21.97 0 0 1-.057.304l7.856 1.512Zm-.174.838.072-.358-7.843-1.58-.072.357 7.843 1.581Zm.162-.805.072-.357-7.842-1.581-.073.358 7.843 1.58Zm.089-.446.07-.412-7.895-1.293a21.9 21.9 0 0 1-.051.302l7.876 1.403Zm.15-.927c.02-.138.04-.276.057-.414l-7.93-1.046-.043.303 7.916 1.157Zm.057-.414.04-.309-7.942-.964-.029.227 7.931 1.046Zm.084-.695.032-.31-7.962-.78a21.34 21.34 0 0 1-.023.228l7.953.862Zm-.075.629.03-.269-7.947-.913-.031.268 7.948.914Zm.069-.604.03-.268-7.947-.913-.03.268 7.947.913Zm.038-.335c.013-.137.026-.275.037-.412l-7.971-.67-.028.303 7.962.779Zm.076-.928c.01-.138.018-.275.025-.413l-7.989-.422a21.79 21.79 0 0 1-.018.303l7.982.532Zm.025-.413c.009-.172.017-.344.023-.516l-7.995-.284c-.005.126-.01.252-.017.378l7.989.422Zm.039-1.16a30.6 30.6 0 0 0 .003-.517l-8 .026c0 .126 0 .252-.002.378l7.999.112Zm-.035 1.048.011-.447-7.997-.199-.011.448 7.997.198Zm.025-1.006.011-.447-7.997-.198-.011.447 7.997.198Zm.013-.559c0-.137-.002-.275-.005-.413l-7.998.136.003.303 8-.026Zm-.018-.928c-.004-.138-.01-.276-.017-.413l-7.99.383.012.303 7.995-.273Zm-.017-.413a30.177 30.177 0 0 0-.022-.413l-7.985.493c.006.102.012.203.016.303l7.991-.383Zm-.059-.93c-.01-.137-.022-.274-.035-.412l-7.966.742c.01.101.018.202.026.302l7.975-.631Zm.054.84-.025-.357-7.98.562.025.358 7.98-.563Zm-.057-.804-.025-.358-7.98.563.025.357 7.98-.562Zm-.032-.448a28.927 28.927 0 0 0-.042-.413l-7.954.852.03.303 7.966-.742Zm-.102-.93a29.018 29.018 0 0 0-.054-.411l-7.924 1.1c.014.1.028.201.04.302l7.939-.99Zm-.054-.411c-.024-.173-.05-.345-.076-.518l-7.904 1.239c.02.126.039.252.056.379l7.924-1.1Zm-.184-1.162a29.56 29.56 0 0 0-.097-.514l-7.85 1.547c.026.125.05.25.072.377l7.875-1.41Zm.167 1.05-.075-.447-7.89 1.324.075.447 7.89-1.324Zm-.169-1.006-.075-.447-7.89 1.324.076.447 7.89-1.324Zm-.095-.558a30.067 30.067 0 0 0-.085-.414l-7.826 1.657.062.303 7.849-1.546Zm-.199-.93a28.443 28.443 0 0 0-.097-.41l-7.77 1.902.071.302 7.796-1.794Zm-.097-.41c-.051-.208-.104-.416-.16-.623l-7.728 2.068c.041.152.08.305.117.457l7.77-1.903Zm-.377-1.396c-.061-.205-.124-.41-.19-.614l-7.62 2.434c.048.15.094.301.139.452l7.67-2.272Zm-.19-.614c-.028-.09-.057-.179-.087-.268l-7.597 2.504.064.198 7.62-2.434Zm-.199-.603c-.03-.09-.061-.178-.093-.267l-7.544 2.662.069.197 7.568-2.592Zm.181.546-.078-.233-7.584 2.549.079.232 7.583-2.548Zm-.176-.523-.078-.233-7.584 2.548.079.233 7.583-2.548Zm-8.318.678c.05.11.099.222.147.335l7.357-3.143a29.797 29.797 0 0 0-.199-.454L80.31 51.04Zm.322.757c.046.113.09.227.134.34l7.467-2.872c-.06-.154-.12-.308-.182-.46l-7.419 2.992Zm.134.34.07.183 7.49-2.808-.093-.247-7.467 2.873Zm.154.413.066.184 7.544-2.662-.089-.25-7.52 2.728Zm-1.146-2.628c.058.113.115.227.171.34l7.175-3.539c-.077-.155-.155-.31-.234-.463l-7.112 3.662Zm.378.77c.054.116.106.231.158.348l7.305-3.262a29.6 29.6 0 0 0-.215-.471l-7.248 3.386Zm-.428-.87.195.406 7.212-3.463-.195-.405-7.212 3.462Zm.438.913.195.405 7.212-3.463-.195-.405-7.212 3.463Zm-1.222-2.29c.091.148.181.297.269.448l6.908-4.034c-.12-.205-.241-.408-.365-.61l-6.811 4.197Zm.59 1.016c.082.152.164.306.244.461l7.112-3.662c-.108-.21-.22-.42-.332-.627l-7.025 3.828Zm-1.053-1.737.145.22 6.696-4.378-.199-.3-6.642 4.458Zm.324.498.14.224 6.81-4.196a29.52 29.52 0 0 0-.19-.306l-6.76 4.278Zm-.367-.563.168.262 6.729-4.328-.17-.262-6.727 4.328Zm.38.59.168.263 6.728-4.328-.168-.263-6.729 4.328Zm-.964-1.41c.067.09.133.179.198.27l6.486-4.683a29.79 29.79 0 0 0-.27-.367l-6.414 4.78Zm.439.61c.063.09.125.183.188.275l6.642-4.458c-.085-.126-.17-.252-.256-.376l-6.575 4.559Zm-1.107-1.462.21.259 6.248-4.997c-.095-.118-.19-.236-.287-.353l-6.17 5.091Zm.467.587c.068.088.135.176.201.265l6.415-4.78c-.09-.122-.182-.243-.275-.363l-6.34 4.878Zm-.529-.664.243.31 6.295-4.937-.243-.31-6.295 4.937Zm.547.698.243.31 6.295-4.938-.243-.31-6.295 4.938Zm-1.157-1.398.21.236 6.004-5.288-.288-.322-5.926 5.374Zm.47.535.202.242 6.171-5.09a29.34 29.34 0 0 0-.277-.331l-6.097 5.179Zm-.962-1.06.153.16 5.803-5.507-.209-.217-5.747 5.565Zm.343.362.15.163 5.925-5.374a30.685 30.685 0 0 0-.204-.222l-5.871 5.433Zm-.388-.408.18.19 5.836-5.47-.178-.19-5.838 5.47Zm.403.429.178.19 5.838-5.47-.179-.19-5.837 5.47Zm-1.03-1.047.21.201 5.579-5.733c-.095-.093-.19-.184-.287-.275l-5.502 5.807Zm.468.457c.069.069.137.138.204.208l5.748-5.565c-.093-.095-.185-.19-.279-.284l-5.672 5.641Zm-1.025-.967c.058.05.115.102.173.154l5.363-5.935-.236-.212-5.3 5.992Zm.387.35.17.16 5.502-5.807a29.441 29.441 0 0 0-.23-.217l-5.442 5.865Zm-.438-.396.202.185 5.403-5.9-.203-.186-5.402 5.9Zm.456.417.202.185 5.402-5.9-.202-.185-5.403 5.9Zm-1.143-.996.23.189 5.116-6.15a31.884 31.884 0 0 0-.313-.257l-5.033 6.218Zm.514.429.224.196 5.3-5.992c-.1-.09-.203-.179-.305-.267l-5.22 6.063Zm-1.007-.816.153.117 4.91-6.315a31.865 31.865 0 0 0-.207-.16l-4.856 6.358Zm.342.266.15.12 5.034-6.217-.205-.165-4.979 6.262Zm-.386-.3.178.14 4.945-6.289-.178-.14-4.945 6.288Zm.402.315.179.141 4.945-6.289-.18-.14-4.944 6.288Zm-.964-.728.189.135 4.704-6.47-.256-.184-4.637 6.519Zm.422.307.184.14 4.856-6.358a30.686 30.686 0 0 0-.252-.19l-4.788 6.408Zm-1.047-.736.194.13 4.482-6.627c-.088-.06-.176-.118-.264-.176l-4.412 6.673Zm.435.295.19.134 4.637-6.52a28.855 28.855 0 0 0-.26-.182l-4.567 6.568Zm-.491-.333.227.156 4.525-6.598-.227-.155-4.525 6.597Zm.51.35.227.156 4.525-6.597-.227-.156-4.525 6.597Zm-.936-.622.15.094 4.291-6.75a28.759 28.759 0 0 0-.203-.129l-4.238 6.785Zm.335.214.147.096 4.412-6.673a30.106 30.106 0 0 0-.2-.132l-4.36 6.709Zm-1.163-.706c.086.048.172.097.257.147l4.033-6.909a30.3 30.3 0 0 0-.35-.2l-3.94 6.962Zm.575.337.253.155 4.238-6.785a30.947 30.947 0 0 0-.343-.211l-4.148 6.84Zm-.65-.38.3.178 4.091-6.875-.3-.18-4.091 6.876Zm.676.401.3.18 4.091-6.876-.3-.179-4.09 6.876Zm-1.521-.851.285.147 3.713-7.086a31.55 31.55 0 0 0-.388-.2l-3.61 7.139Zm.64.336.28.157 3.94-6.962a31.59 31.59 0 0 0-.38-.213l-3.84 7.018Zm-1.366-.687.225.105 3.43-7.227a28.204 28.204 0 0 0-.304-.142l-3.351 7.264Zm.504.24.222.11 3.61-7.138-.301-.15-3.531 7.178Zm-.57-.27.264.127 3.481-7.203-.263-.128-3.481 7.203Zm.593.286.263.127 3.481-7.203-.263-.127-3.48 7.203Zm-1.02-.476.152.066 3.229-7.32-.207-.09-3.174 7.344Zm.342.151.151.07 3.35-7.265a31.534 31.534 0 0 0-.205-.094l-3.296 7.29Zm-1.081-.455.229.09 2.99-7.42a28.627 28.627 0 0 0-.31-.122l-2.909 7.452Zm.513.208c.076.031.15.064.226.096l3.174-7.343a30.804 30.804 0 0 0-.307-.131l-3.093 7.378Zm-.58-.234.269.11 3.041-7.4-.268-.11-3.041 7.4Zm.604.248.268.11 3.042-7.4-.268-.11-3.042 7.4Zm-1.03-.407.152.055 2.787-7.499-.207-.076-2.732 7.52Zm.342.127.151.058L71.048 32a25.556 25.556 0 0 0-.206-.08l-2.854 7.474Zm-1.08-.381.227.075 2.55-7.583a30.439 30.439 0 0 0-.311-.103l-2.467 7.61Zm.512.172.226.081 2.732-7.519a30.404 30.404 0 0 0-.308-.11l-2.65 7.548Zm-.58-.195.269.092 2.6-7.565-.269-.093-2.6 7.566Zm.604.208.268.092 2.6-7.566-.268-.092-2.6 7.566Zm-1.065-.35.163.05 2.335-7.652a33.251 33.251 0 0 0-.221-.067l-2.277 7.67Zm.366.113.162.052 2.467-7.61a28.2 28.2 0 0 0-.22-.071l-2.41 7.629Zm-1.264-.359c.092.024.185.047.277.072l2.054-7.732a32.08 32.08 0 0 0-.377-.098l-1.954 7.758Zm.623.167c.091.026.183.052.275.08l2.277-7.67-.375-.108-2.178 7.698Zm-.704-.188.326.09 2.116-7.716-.326-.09-2.116 7.716Zm.733.201.326.09 2.116-7.716-.326-.09-2.116 7.716Zm-1.442-.364.243.054 1.758-7.805-.332-.073-1.67 7.824Zm.547.124.243.06 1.954-7.758-.33-.08-1.867 7.778Zm-1.286-.268.228.042 1.485-7.861c-.103-.02-.207-.039-.31-.057l-1.403 7.876Zm.512.097.227.047 1.669-7.823a29.08 29.08 0 0 0-.309-.065l-1.587 7.841Zm-.579-.11.268.053 1.537-7.851-.268-.053-1.537 7.851Zm.604.118.268.053 1.536-7.851-.268-.053-1.536 7.852Zm-1.521-.258.303.042 1.157-7.915a29.98 29.98 0 0 0-.413-.058l-1.047 7.931Zm.682.101.302.052 1.403-7.876a29.67 29.67 0 0 0-.412-.07l-1.293 7.894Zm-1.666-.208.303.028.8-7.96a29.761 29.761 0 0 0-.413-.038l-.69 7.97Zm.681.07c.101.011.202.024.303.037l1.047-7.93a29.67 29.67 0 0 0-.412-.052l-.938 7.945Zm-.77-.079.357.04.869-7.954-.358-.039-.869 7.953Zm.804.088.358.04.868-7.954-.357-.039-.869 7.953ZM61 37.951l.303.014.443-7.987a29.802 29.802 0 0 0-.413-.02L61 37.95Zm.681.039.303.024.69-7.97a29.597 29.597 0 0 0-.412-.033l-.58 7.979Zm-1.418-.058.227.003.147-7.998a31.96 31.96 0 0 0-.31-.004l-.064 8Zm.51.01.227.009.333-7.993a31.857 31.857 0 0 0-.31-.012l-.25 7.997Zm-.578-.01.269.006.198-7.998-.268-.006-.199 7.997Zm.604.014.268.007.199-7.998-.268-.006-.199 7.997Zm-1.627.005.335-.012-.21-7.997c-.153.004-.305.01-.458.016l.333 7.993Zm.755-.019h.336l.064-8a29.134 29.134 0 0 0-.458 0l.058 8Zm-1.737.082c.1-.009.201-.017.302-.024l-.581-7.98c-.138.01-.275.022-.412.034l.69 7.97Zm.68-.049.302-.014-.333-7.993c-.138.006-.275.012-.413.02l.443 7.987Zm-.77.056.358-.023-.512-7.984-.358.023.512 7.984Zm.804-.052.357-.023-.512-7.983-.357.022.512 7.984Zm-1.696.152.302-.038-.94-7.944-.41.051 1.048 7.931Zm.68-.079c.1-.01.2-.02.302-.028l-.691-7.97c-.138.012-.275.024-.413.038l.801 7.96Zm-1.804.258c.115-.022.23-.042.345-.061l-1.333-7.889c-.156.027-.313.054-.47.083l1.458 7.867Zm.777-.13c.116-.017.232-.034.347-.049l-1.049-7.93c-.157.02-.315.042-.473.066l1.175 7.913Zm-.88.147.41-.065-1.254-7.9-.409.064 1.254 7.901Zm.92-.146.41-.065-1.254-7.9-.409.064 1.254 7.901Zm-2.294.455.151-.038-1.937-7.762-.205.052 1.991 7.748Zm.34-.085.153-.036-1.814-7.791-.207.049 1.869 7.778Zm.153-.036.301-.068-1.704-7.816c-.138.03-.275.06-.411.093l1.814 7.791Zm.68-.147c.101-.02.202-.04.304-.058l-1.458-7.866c-.138.025-.276.052-.414.08l1.568 7.844Zm-2.405.623c.126-.04.252-.08.377-.117L51.454 31.2c-.171.052-.342.104-.512.159l2.433 7.62Zm.851-.254c.127-.035.254-.069.381-.101l-1.991-7.748a31.2 31.2 0 0 0-.519.138l2.13 7.711Zm-.96.287.447-.129-2.214-7.687-.447.128 2.213 7.688Zm1.005-.29.447-.128-2.214-7.688-.447.129 2.214 7.687Z"
        fill="#000" mask="url(#a)" />
    <path
        d="M96.654 42.35a40.899 40.899 0 0 1 3.419 10.646 2 2 0 0 0-1.687 2.226 38.494 38.494 0 0 1-3.983 22.452A38.492 38.492 0 0 1 78.47 93.986a2 2 0 0 0-.828 2.668 40.934 40.934 0 0 1-10.645 3.42 2 2 0 0 0-2.227-1.688 38.494 38.494 0 0 1-23.197-4.376 2.034 2.034 0 0 0-.24-.11c-.07-.053-.144-.1-.222-.144a38.947 38.947 0 0 1-1.802-1.07 2.013 2.013 0 0 0-.352-.178 2.01 2.01 0 0 0-.306-.248 38.668 38.668 0 0 1-1.771-1.24 2.014 2.014 0 0 0-.24-.154 2.021 2.021 0 0 0-.214-.19 38.706 38.706 0 0 1-1.259-1.006 2.027 2.027 0 0 0-.176-.132 2.028 2.028 0 0 0-.16-.152 39.145 39.145 0 0 1-1.171-1.044 2.03 2.03 0 0 0-.211-.17 2.017 2.017 0 0 0-.184-.201 38.58 38.58 0 0 1-1.134-1.129 2.05 2.05 0 0 0-.168-.156 2.024 2.024 0 0 0-.147-.175 38.762 38.762 0 0 1-.497-.539l-.171.155.17-.155a38.378 38.378 0 0 1-.371-.416 2.006 2.006 0 0 0-.121-.126 2.022 2.022 0 0 0-.108-.138c-.122-.14-.243-.282-.362-.425l-.177.148.177-.148a37.74 37.74 0 0 1-.428-.52 2.038 2.038 0 0 0-.141-.157 2.031 2.031 0 0 0-.122-.172c-.14-.176-.278-.353-.414-.532l-.277.211.277-.21a38.431 38.431 0 0 1-.466-.625c-.049-.066-.1-.129-.155-.188a2.021 2.021 0 0 0-.13-.206 38.197 38.197 0 0 1-.795-1.161 2.043 2.043 0 0 0-.116-.159 2.05 2.05 0 0 0-.098-.17 37.268 37.268 0 0 1-.778-1.26 2.02 2.02 0 0 0-.15-.22 2.028 2.028 0 0 0-.118-.24 38.51 38.51 0 0 1-.749-1.372 2.013 2.013 0 0 0-.113-.19 2.012 2.012 0 0 0-.09-.204 39.14 39.14 0 0 1-.872-1.843 2.011 2.011 0 0 0-.207-.362 2.01 2.01 0 0 0-.12-.4 38.972 38.972 0 0 1-.773-2.011 2.022 2.022 0 0 0-.101-.238 2.009 2.009 0 0 0-.067-.25c-.088-.26-.173-.522-.256-.784l-.531.167.531-.167a39.077 39.077 0 0 1-.283-.942 2.01 2.01 0 0 0-.108-.29c-.011-.1-.03-.201-.057-.302a39.006 39.006 0 0 1-.439-1.792 2.015 2.015 0 0 0-.075-.26 2.031 2.031 0 0 0-.037-.267 38.908 38.908 0 0 1-.164-.845l-.608.11.608-.11c-.07-.384-.134-.769-.192-1.154a2.005 2.005 0 0 0-.088-.357c.006-.12.002-.243-.015-.367a38.887 38.887 0 0 1-.228-2.213 2.012 2.012 0 0 0-.051-.327c.012-.108.015-.219.008-.331a38.503 38.503 0 0 1-.062-2.106c0-.113-.01-.223-.028-.33.02-.106.03-.216.032-.328a38.54 38.54 0 0 1 .09-2.107 2.019 2.019 0 0 0-.005-.33c.027-.106.046-.215.056-.327a38.842 38.842 0 0 1 .226-2 2 2 0 0 0 .02-.3c.03-.094.052-.192.068-.292a38.327 38.327 0 0 1 .39-2.108c.026-.124.04-.248.044-.37.05-.112.089-.23.118-.353a38.615 38.615 0 0 1 .556-2.104c.03-.101.05-.203.064-.304.045-.092.084-.188.115-.288a38.952 38.952 0 0 1 .665-1.944c.04-.107.07-.214.09-.322.056-.094.106-.194.147-.3a39.12 39.12 0 0 1 .752-1.788c.038-.085.07-.17.095-.257.049-.076.093-.156.133-.24a39.224 39.224 0 0 1 .656-1.34 38.493 38.493 0 0 1 15.932-16.312 2 2 0 0 0 .827-2.668 40.918 40.918 0 0 1 10.646-3.42 2 2 0 0 0 2.226 1.688 38.493 38.493 0 0 1 22.452 3.983 38.494 38.494 0 0 1 16.312 15.933 2 2 0 0 0 2.668.827Z"
        stroke="#000" stroke-width="4" stroke-linecap="round" stroke-linejoin="round" stroke-dasharray="80 25" />
    <path
        d="M89.958 13.621a55.535 55.535 0 0 1 10.231 8.52 2 2 0 0 0-.157 2.799c7.16 8.162 11.895 18.58 12.958 30.224 1.063 11.644-1.708 22.747-7.273 32.07a2 2 0 0 0 .662 2.724 55.54 55.54 0 0 1-8.52 10.231 2 2 0 0 0-2.798-.157c-8.163 7.161-18.581 11.896-30.225 12.958-11.643 1.063-22.747-1.708-32.07-7.273a2 2 0 0 0-2.724.662 55.549 55.549 0 0 1-10.231-8.52 2 2 0 0 0 .157-2.799C12.808 86.898 8.073 76.48 7.01 64.836c-1.063-11.643 1.708-22.747 7.273-32.07a2 2 0 0 0-.662-2.724 55.542 55.542 0 0 1 8.52-10.231 2 2 0 0 0 2.799.157c8.162-7.16 18.58-11.896 30.224-12.958 11.643-1.063 22.747 1.708 32.07 7.273a2 2 0 0 0 2.724-.662Z"
        stroke="#000" stroke-width="4" stroke-linecap="round" stroke-linejoin="round" stroke-dasharray="80 20" />
    <path
        d="m79.863 9.632-4.878 12.926M33.566 32.373l9.607 9.928M90.252 84.643l-9.968-9.566M41.891 110.447l4.513-13.058"
        stroke="#000" stroke-width="4" />
    <path
        d="M139.672 68.848h15.039c3.418 0 5.127-1.937 5.127-5.81V35.351c0-3.874-1.709-5.811-5.127-5.811h-15.039v39.307ZM132.836 75V25.098l3.623-1.71h18.252c7.975 0 11.963 3.988 11.963 11.964v27.685c0 7.975-3.988 11.963-11.963 11.963h-21.875Zm56.055 0c-6.836 0-10.254-3.418-10.254-10.254v-17.09c0-6.836 3.418-10.254 10.254-10.254h7.861c6.836 0 10.254 3.418 10.254 10.254v1.812l-21.431 16.577c.319 1.868 1.424 2.803 3.316 2.803h7.861c2.279 0 3.418-1.367 3.418-4.102v-1.811l6.494-3.077h.342v4.888c0 6.836-3.418 10.254-10.254 10.254h-7.861Zm-3.418-16.099 14.663-11.826c-.137-2.347-1.265-3.52-3.384-3.52h-7.861c-2.279 0-3.418 1.367-3.418 4.101v11.245Zm45.459 9.947h10.595c3.418 0 5.127-1.937 5.127-5.81V35.351c0-3.874-1.709-5.811-5.127-5.811h-10.595c-3.418 0-5.127 1.937-5.127 5.81v27.686c0 3.874 1.709 5.81 5.127 5.81Zm0 6.152c-7.976 0-11.963-3.988-11.963-11.963V35.352c0-7.976 3.987-11.963 11.963-11.963h10.595c7.976 0 11.963 3.987 11.963 11.963v27.685c0 7.975-3.987 11.963-11.963 11.963h-10.595Zm34.521 1.367v-28.71c0-6.837 3.418-10.255 10.254-10.255h7.861c6.836 0 10.254 3.418 10.254 10.254v25.635l-6.494 3.076h-.342v-28.71c0-2.735-1.139-4.102-3.418-4.102h-7.861c-2.279 0-3.418 1.367-3.418 4.101v25.635l-6.494 3.076h-.342Zm48.296 0V29.61H299.12v-.341l2.769-5.88h33.325v.342l-2.769 5.88h-11.86V73.29l-6.494 3.076h-.342ZM350.766 75c-6.836 0-10.254-3.418-10.254-10.254v-17.09c0-6.836 3.418-10.254 10.254-10.254h7.861c6.836 0 10.254 3.418 10.254 10.254v1.812L347.45 66.045c.319 1.868 1.424 2.803 3.316 2.803h7.861c2.279 0 3.418-1.367 3.418-4.102v-1.811l6.494-3.077h.342v4.888c0 6.836-3.418 10.254-10.254 10.254h-7.861Zm-3.418-16.099 14.663-11.826c-.137-2.347-1.265-3.52-3.384-3.52h-7.861c-2.279 0-3.418 1.367-3.418 4.101v11.245ZM135.883 100.803h5.371c1.221 0 1.831-.692 1.831-2.075V88.84c0-1.384-.61-2.075-1.831-2.075h-5.371v14.038ZM133.441 103V85.178l1.294-.61h6.519c2.848 0 4.272 1.424 4.272 4.272v9.888c0 2.848-1.424 4.272-4.272 4.272h-7.813Zm20.02 0c-2.441 0-3.662-1.221-3.662-3.662v-6.104c0-2.441 1.221-3.662 3.662-3.662h2.808c2.441 0 3.662 1.221 3.662 3.662v.647l-7.654 5.92c.114.668.508 1.002 1.184 1.002h2.808c.813 0 1.22-.489 1.22-1.465v-.647l2.32-1.099h.122v1.746c0 2.441-1.221 3.662-3.662 3.662h-2.808Zm-1.221-5.75 5.237-4.223c-.049-.838-.452-1.258-1.208-1.258h-2.808c-.814 0-1.221.489-1.221 1.465v4.017Zm15.015 5.75c-2.442 0-3.662-1.221-3.662-3.662v-6.104c0-2.441 1.22-3.662 3.662-3.662h2.807c2.442 0 3.663 1.221 3.663 3.662v.647l-7.654 5.92c.114.668.508 1.002 1.184 1.002h2.807c.814 0 1.221-.489 1.221-1.465v-.647l2.32-1.099h.122v1.746c0 2.441-1.221 3.662-3.663 3.662h-2.807Zm-1.221-5.75 5.237-4.223c-.049-.838-.452-1.258-1.209-1.258h-2.807c-.814 0-1.221.489-1.221 1.465v4.017Zm15.625 5.75c-.553 0-.96-.126-1.221-.378v4.773l-2.319 1.098h-.122V93.234c0-2.441 1.221-3.662 3.662-3.662h2.808c2.441 0 3.662 1.221 3.662 3.662v6.104c0 2.441-1.221 3.662-3.662 3.662h-2.808Zm0-2.197h2.808c.814 0 1.221-.489 1.221-1.465v-6.104c0-.976-.407-1.465-1.221-1.465h-2.808c-.814 0-1.221.489-1.221 1.465v6.104c0 .976.407 1.465 1.221 1.465Zm24.78 0h3.785c1.22 0 1.831-.692 1.831-2.075V88.84c0-1.384-.611-2.075-1.831-2.075h-3.785c-1.22 0-1.831.691-1.831 2.075v9.888c0 1.383.611 2.075 1.831 2.075Zm0 2.197c-2.848 0-4.272-1.424-4.272-4.272V88.84c0-2.849 1.424-4.273 4.272-4.273h3.785c2.848 0 4.272 1.425 4.272 4.273v9.888c0 2.848-1.424 4.272-4.272 4.272h-3.785Zm12.33.488V93.234c0-2.441 1.22-3.662 3.662-3.662h2.807c2.442 0 3.662 1.221 3.662 3.662v9.156l-2.319 1.098h-.122V93.234c0-.976-.407-1.465-1.221-1.465h-2.807c-.814 0-1.221.489-1.221 1.465v9.156l-2.319 1.098h-.122Zm27.014 0V86.789h-5.225v-.122l.989-2.1h11.902v.123l-.989 2.1h-4.236v15.6l-2.319 1.098h-.122Zm11.023-.488c-2.442 0-3.662-1.221-3.662-3.662v-6.104c0-2.441 1.22-3.662 3.662-3.662h2.807c2.442 0 3.662 1.221 3.662 3.662v.647l-7.653 5.92c.114.668.508 1.002 1.184 1.002h2.807c.814 0 1.221-.489 1.221-1.465v-.647l2.319-1.099h.122v1.746c0 2.441-1.22 3.662-3.662 3.662h-2.807Zm-1.221-5.75 5.237-4.223c-.049-.838-.452-1.258-1.209-1.258h-2.807c-.814 0-1.221.489-1.221 1.465v4.017ZM270.6 103c-2.442 0-3.662-1.221-3.662-3.662v-6.104c0-2.441 1.22-3.662 3.662-3.662h2.807c2.442 0 3.662 1.221 3.662 3.662v.647l-2.319 1.099h-.122v-1.746c0-.976-.407-1.465-1.221-1.465H270.6c-.814 0-1.221.489-1.221 1.465v6.104c0 .976.407 1.465 1.221 1.465h2.807c.814 0 1.221-.489 1.221-1.465v-.647l2.319-1.099h.122v1.746c0 2.441-1.22 3.662-3.662 3.662H270.6Zm10.742.488v-18.31l2.319-1.099h.122v5.872a2.068 2.068 0 0 1 1.221-.379h2.808c2.441 0 3.662 1.221 3.662 3.662v9.156l-2.32 1.098h-.122V93.234c0-.976-.407-1.465-1.22-1.465h-2.808c-.814 0-1.221.489-1.221 1.465v9.156l-2.319 1.098h-.122Zm13.794 0V93.234c0-2.441 1.22-3.662 3.662-3.662h2.807c2.442 0 3.663 1.221 3.663 3.662v9.156l-2.32 1.098h-.122V93.234c0-.976-.407-1.465-1.221-1.465h-2.807c-.814 0-1.221.489-1.221 1.465v9.156l-2.319 1.098h-.122Zm17.456-2.685h2.807c.814 0 1.221-.489 1.221-1.465v-6.104c0-.976-.407-1.465-1.221-1.465h-2.807c-.814 0-1.221.489-1.221 1.465v6.104c0 .976.407 1.465 1.221 1.465Zm0 2.197c-2.442 0-3.662-1.221-3.662-3.662v-6.104c0-2.441 1.22-3.662 3.662-3.662h2.807c2.442 0 3.663 1.221 3.663 3.662v6.104c0 2.441-1.221 3.662-3.663 3.662h-2.807Zm10.742.488v-18.31l2.319-1.099h.122v18.311l-2.319 1.098h-.122Zm10.376-2.685h2.808c.813 0 1.22-.489 1.22-1.465v-6.104c0-.976-.407-1.465-1.22-1.465h-2.808c-.814 0-1.221.489-1.221 1.465v6.104c0 .976.407 1.465 1.221 1.465Zm0 2.197c-2.441 0-3.662-1.221-3.662-3.662v-6.104c0-2.441 1.221-3.662 3.662-3.662h2.808c2.441 0 3.662 1.221 3.662 3.662v6.104c0 2.441-1.221 3.662-3.662 3.662h-2.808Zm13.794 0c-2.442 0-3.662-1.221-3.662-3.662v-6.104c0-2.441 1.22-3.662 3.662-3.662h2.808c2.441 0 3.662 1.221 3.662 3.662v11.109c0 2.441-1.221 3.662-3.662 3.662h-5.201v-.122l.977-2.075h4.224c.813 0 1.22-.489 1.22-1.465v-1.709c-.342.244-.748.366-1.22.366h-2.808Zm0-2.197h2.808c.813 0 1.22-.489 1.22-1.465v-6.104c0-.976-.407-1.465-1.22-1.465h-2.808c-.814 0-1.221.489-1.221 1.465v6.104c0 .976.407 1.465 1.221 1.465Zm14.16 2.197c-2.441 0-3.662-1.221-3.662-3.662v-9.155l2.319-1.099h.122v10.254c0 .976.407 1.465 1.221 1.465h2.808c.813 0 1.22-.489 1.22-1.465v-9.155l2.32-1.099h.122v15.259c0 2.441-1.221 3.662-3.662 3.662h-5.201v-.122l.977-2.075h4.224c.813 0 1.22-.489 1.22-1.465v-1.709c-.317.244-.724.366-1.22.366h-2.808Z"
        fill="#000" />
</svg>